<svg width="108" height="108" viewBox="0 0 108 108" fill="none" xmlns="http://www.w3.org/2000/svg">
<g filter="url(#filter0_ddd)">
<rect x="4" width="100" height="100" rx="20" fill="#3D7DA3"/>
</g>
<g filter="url(#filter1_d)">
<path d="M23.7487 55.7389H27.706V59.9064H34.5653V55.7389H39.3141V59.9064H51.1859V55.7389L53.5603 54.5813L55.9347 55.7389V59.9064H68.0703V55.7389H73.0829V59.9064H79.6784V55.7389H84.1633L87.0653 59.9064V65H20.5829V59.9064L23.7487 55.7389Z" fill="#9F7262"/>
<path d="M19.7035 50.4138C19.7035 50.4138 85.1307 50.4138 88.2965 50.4138C89.8794 51.803 88.2965 53.1921 88.2965 53.1921H19.7035C19.7035 53.1921 18.1206 51.803 19.7035 50.4138Z" fill="#969696"/>
<path d="M50.4265 18C64.1451 21.7044 62.5621 34.9015 62.5621 34.9015C62.5621 34.9015 65.4642 33.9754 64.4089 27.2611C64.4089 27.2611 70.7405 29.8079 70.7405 38.3744C70.7405 38.3744 70.4767 43.6995 64.4089 47.4039C62.2983 48.5616 59.6601 47.4039 59.6601 47.4039C65.4642 40.9212 60.6834 35.5961 60.6834 35.5961C60.6834 35.5961 60.6834 40.9212 56.1985 41.3842C58.0452 36.2906 59.1005 33.0493 53.8241 28.8818C55.407 34.2069 47.7563 41.6158 47.7563 41.6158C47.7563 41.6158 46.701 39.069 48.2839 36.2906C45.9095 38.6059 41.4246 41.3842 46.9968 47.4039C44.6225 48.0985 42.2481 47.4039 42.2481 47.4039C37.4993 46.2463 36.1482 41.6158 36.4441 38.1429C36.7399 34.67 39.8737 33.9754 40.1375 28.8818C40.1375 28.8818 44.0948 30.2709 43.3034 34.9015C43.3034 34.9015 51.2179 30.2709 50.4265 18Z" fill="#FFBD5A"/>
<path d="M52.5228 40.2266C55.8959 41.0293 55.5067 43.8888 55.5067 43.8888C55.5067 43.8888 56.2202 43.6882 55.9608 42.2333C55.9608 42.2333 57.5176 42.7851 57.5176 44.6413C57.5176 44.6413 57.4527 45.7952 55.9608 46.5979C55.4418 46.8487 54.7932 46.5979 54.7932 46.5979C56.2202 45.1932 55.0448 44.0393 55.0448 44.0393C55.0448 44.0393 55.0448 45.1932 53.942 45.2935C54.3961 44.1898 54.6556 43.4875 53.3582 42.5845C53.7474 43.7383 51.8663 45.3437 51.8663 45.3437C51.8663 45.3437 51.6068 44.7918 51.996 44.1898C51.4122 44.6915 50.3095 45.2935 51.6796 46.5979C51.0958 46.7484 50.512 46.5979 50.512 46.5979C49.3443 46.347 49.0121 45.3437 49.0849 44.5912C49.1576 43.8387 49.9282 43.6882 49.993 42.5845C49.993 42.5845 50.966 42.8855 50.7714 43.8888C50.7714 43.8888 52.7174 42.8855 52.5228 40.2266Z" fill="#FFD600"/>
</g>
<path d="M17.7108 78.144C18.0361 78.144 18.3161 78.0907 18.5508 77.984C18.7855 77.872 19.0308 77.696 19.2868 77.456L19.8948 78.08C19.3028 78.736 18.5828 79.064 17.7348 79.064C16.8921 79.064 16.1908 78.792 15.6308 78.248C15.0761 77.704 14.7988 77.016 14.7988 76.184C14.7988 75.352 15.0815 74.6587 15.6468 74.104C16.2175 73.5493 16.9348 73.272 17.7988 73.272C18.6681 73.272 19.3935 73.592 19.9748 74.232L19.3748 74.888C19.1081 74.632 18.8548 74.4533 18.6148 74.352C18.3801 74.2507 18.1028 74.2 17.7828 74.2C17.2175 74.2 16.7428 74.384 16.3588 74.752C15.9748 75.1147 15.7828 75.5813 15.7828 76.152C15.7828 76.7173 15.9721 77.192 16.3508 77.576C16.7348 77.9547 17.1881 78.144 17.7108 78.144ZM21.7963 77.88C22.0523 78.136 22.3749 78.264 22.7643 78.264C23.1536 78.264 23.4736 78.136 23.7243 77.88C23.9803 77.6187 24.1083 77.2827 24.1083 76.872C24.1083 76.4613 23.9803 76.128 23.7243 75.872C23.4736 75.6107 23.1536 75.48 22.7643 75.48C22.3749 75.48 22.0523 75.6107 21.7963 75.872C21.5456 76.128 21.4203 76.4613 21.4203 76.872C21.4203 77.2827 21.5456 77.6187 21.7963 77.88ZM24.3643 78.432C23.9376 78.8533 23.4043 79.064 22.7643 79.064C22.1243 79.064 21.5909 78.8533 21.1643 78.432C20.7376 78.0053 20.5243 77.4853 20.5243 76.872C20.5243 76.2587 20.7376 75.7413 21.1643 75.32C21.5909 74.8933 22.1243 74.68 22.7643 74.68C23.4043 74.68 23.9376 74.8933 24.3643 75.32C24.7909 75.7413 25.0043 76.2587 25.0043 76.872C25.0043 77.4853 24.7909 78.0053 24.3643 78.432ZM27.911 79.064C27.319 79.064 26.8097 78.864 26.383 78.464C25.9563 78.0587 25.743 77.5307 25.743 76.88C25.743 76.2293 25.9643 75.7013 26.407 75.296C26.855 74.8853 27.399 74.68 28.039 74.68C28.679 74.68 29.2203 74.9013 29.663 75.344L29.135 75.992C28.767 75.672 28.3963 75.512 28.023 75.512C27.6497 75.512 27.3243 75.6373 27.047 75.888C26.775 76.1333 26.639 76.4533 26.639 76.848C26.639 77.2373 26.775 77.568 27.047 77.84C27.319 78.112 27.6523 78.248 28.047 78.248C28.447 78.248 28.823 78.0667 29.175 77.704L29.703 78.28C29.1857 78.8027 28.5883 79.064 27.911 79.064ZM31.5284 79H30.6324V74.744H31.5284V79ZM30.6884 73.896C30.5764 73.784 30.5204 73.6507 30.5204 73.496C30.5204 73.3413 30.5764 73.208 30.6884 73.096C30.8004 72.984 30.9337 72.928 31.0884 72.928C31.243 72.928 31.3764 72.984 31.4884 73.096C31.6004 73.208 31.6564 73.3413 31.6564 73.496C31.6564 73.6507 31.6004 73.784 31.4884 73.896C31.3764 74.008 31.243 74.064 31.0884 74.064C30.9337 74.064 30.8004 74.008 30.6884 73.896ZM33.7237 76.696V79H32.8277V74.744H33.7237V75.52C33.8677 75.2587 34.065 75.0533 34.3157 74.904C34.5717 74.7547 34.8464 74.68 35.1397 74.68C35.6197 74.68 36.0064 74.8267 36.2997 75.12C36.5984 75.4133 36.7477 75.8373 36.7477 76.392V79H35.8517V76.664C35.8517 75.88 35.5264 75.488 34.8757 75.488C34.5664 75.488 34.297 75.592 34.0677 75.8C33.8384 76.0027 33.7237 76.3013 33.7237 76.696ZM41.4476 79H40.6316V78.432C40.2796 78.8533 39.8076 79.064 39.2156 79.064C38.7729 79.064 38.4049 78.9387 38.1116 78.688C37.8236 78.4373 37.6796 78.104 37.6796 77.688C37.6796 77.2667 37.8342 76.952 38.1436 76.744C38.4529 76.536 38.8716 76.432 39.3996 76.432H40.5596V76.272C40.5596 75.7067 40.2449 75.424 39.6156 75.424C39.2209 75.424 38.8102 75.568 38.3836 75.856L37.9836 75.296C38.5009 74.8853 39.0876 74.68 39.7436 74.68C40.2449 74.68 40.6529 74.808 40.9676 75.064C41.2876 75.3147 41.4476 75.712 41.4476 76.256V79ZM40.5516 77.416V77.056H39.5436C38.8982 77.056 38.5756 77.2587 38.5756 77.664C38.5756 77.872 38.6556 78.032 38.8156 78.144C38.9756 78.2507 39.1969 78.304 39.4796 78.304C39.7676 78.304 40.0182 78.224 40.2316 78.064C40.4449 77.904 40.5516 77.688 40.5516 77.416ZM45.7269 77.728C45.7269 78.1333 45.5802 78.4587 45.2869 78.704C44.9935 78.944 44.6175 79.064 44.1589 79.064C43.8495 79.064 43.5269 79.008 43.1909 78.896C42.8602 78.784 42.5669 78.6267 42.3109 78.424L42.7429 77.728C43.2389 78.1013 43.7189 78.288 44.1829 78.288C44.3855 78.288 44.5455 78.2427 44.6629 78.152C44.7802 78.056 44.8389 77.936 44.8389 77.792C44.8389 77.5787 44.5562 77.3867 43.9909 77.216C43.9482 77.2 43.9162 77.1893 43.8949 77.184C43.0095 76.944 42.5669 76.544 42.5669 75.984C42.5669 75.5893 42.7189 75.2747 43.0229 75.04C43.3322 74.8 43.7322 74.68 44.2229 74.68C44.7135 74.68 45.1775 74.824 45.6149 75.112L45.2789 75.776C44.9322 75.5467 44.5562 75.432 44.1509 75.432C43.9375 75.432 43.7642 75.472 43.6309 75.552C43.4975 75.6267 43.4309 75.7413 43.4309 75.896C43.4309 76.0347 43.5002 76.136 43.6389 76.2C43.7349 76.248 43.8682 76.2933 44.0389 76.336C44.2149 76.3787 44.3695 76.4213 44.5029 76.464C44.6362 76.5067 44.7642 76.5547 44.8869 76.608C45.0149 76.6613 45.1509 76.736 45.2949 76.832C45.5829 77.024 45.7269 77.3227 45.7269 77.728ZM51.6171 78.144C51.9424 78.144 52.2224 78.0907 52.4571 77.984C52.6917 77.872 52.9371 77.696 53.1931 77.456L53.8011 78.08C53.2091 78.736 52.4891 79.064 51.6411 79.064C50.7984 79.064 50.0971 78.792 49.5371 78.248C48.9824 77.704 48.7051 77.016 48.7051 76.184C48.7051 75.352 48.9877 74.6587 49.5531 74.104C50.1237 73.5493 50.8411 73.272 51.7051 73.272C52.5744 73.272 53.2997 73.592 53.8811 74.232L53.2811 74.888C53.0144 74.632 52.7611 74.4533 52.5211 74.352C52.2864 74.2507 52.0091 74.2 51.6891 74.2C51.1237 74.2 50.6491 74.384 50.2651 74.752C49.8811 75.1147 49.6891 75.5813 49.6891 76.152C49.6891 76.7173 49.8784 77.192 50.2571 77.576C50.6411 77.9547 51.0944 78.144 51.6171 78.144ZM55.7025 77.88C55.9585 78.136 56.2812 78.264 56.6705 78.264C57.0598 78.264 57.3798 78.136 57.6305 77.88C57.8865 77.6187 58.0145 77.2827 58.0145 76.872C58.0145 76.4613 57.8865 76.128 57.6305 75.872C57.3798 75.6107 57.0598 75.48 56.6705 75.48C56.2812 75.48 55.9585 75.6107 55.7025 75.872C55.4518 76.128 55.3265 76.4613 55.3265 76.872C55.3265 77.2827 55.4518 77.6187 55.7025 77.88ZM58.2705 78.432C57.8438 78.8533 57.3105 79.064 56.6705 79.064C56.0305 79.064 55.4972 78.8533 55.0705 78.432C54.6438 78.0053 54.4305 77.4853 54.4305 76.872C54.4305 76.2587 54.6438 75.7413 55.0705 75.32C55.4972 74.8933 56.0305 74.68 56.6705 74.68C57.3105 74.68 57.8438 74.8933 58.2705 75.32C58.6972 75.7413 58.9105 76.2587 58.9105 76.872C58.9105 77.4853 58.6972 78.0053 58.2705 78.432ZM60.8253 76.696V79H59.9293V74.744H60.8253V75.52C60.9533 75.2587 61.1453 75.0533 61.4013 74.904C61.6626 74.7547 61.9426 74.68 62.2413 74.68C62.9133 74.68 63.3693 74.9573 63.6093 75.512C64.0306 74.9573 64.5559 74.68 65.1853 74.68C65.6653 74.68 66.0519 74.8267 66.3453 75.12C66.6439 75.4133 66.7933 75.8373 66.7933 76.392V79H65.8973V76.664C65.8973 75.88 65.5719 75.488 64.9213 75.488C64.6173 75.488 64.3506 75.5867 64.1213 75.784C63.8973 75.976 63.7799 76.2587 63.7693 76.632V79H62.8733V76.664C62.8733 76.2587 62.8013 75.9627 62.6573 75.776C62.5133 75.584 62.2866 75.488 61.9773 75.488C61.6679 75.488 61.3986 75.592 61.1693 75.8C60.9399 76.0027 60.8253 76.3013 60.8253 76.696ZM71.0146 77.048V74.744H71.9106V79H71.0146V78.224C70.8706 78.4853 70.6706 78.6907 70.4146 78.84C70.164 78.9893 69.892 79.064 69.5986 79.064C69.1186 79.064 68.7293 78.9173 68.4306 78.624C68.1373 78.3307 67.9906 77.9067 67.9906 77.352V74.744H68.8866V77.08C68.8866 77.864 69.212 78.256 69.8626 78.256C70.172 78.256 70.4413 78.1547 70.6706 77.952C70.9 77.744 71.0146 77.4427 71.0146 77.048ZM74.1065 76.696V79H73.2105V74.744H74.1065V75.52C74.2505 75.2587 74.4478 75.0533 74.6985 74.904C74.9545 74.7547 75.2292 74.68 75.5225 74.68C76.0025 74.68 76.3892 74.8267 76.6825 75.12C76.9812 75.4133 77.1305 75.8373 77.1305 76.392V79H76.2345V76.664C76.2345 75.88 75.9092 75.488 75.2585 75.488C74.9492 75.488 74.6798 75.592 74.4505 75.8C74.2212 76.0027 74.1065 76.3013 74.1065 76.696ZM81.8304 79H81.0144V78.432C80.6624 78.8533 80.1904 79.064 79.5984 79.064C79.1557 79.064 78.7877 78.9387 78.4944 78.688C78.2064 78.4373 78.0624 78.104 78.0624 77.688C78.0624 77.2667 78.217 76.952 78.5264 76.744C78.8357 76.536 79.2544 76.432 79.7824 76.432H80.9424V76.272C80.9424 75.7067 80.6277 75.424 79.9984 75.424C79.6037 75.424 79.193 75.568 78.7664 75.856L78.3664 75.296C78.8837 74.8853 79.4704 74.68 80.1264 74.68C80.6277 74.68 81.0357 74.808 81.3504 75.064C81.6704 75.3147 81.8304 75.712 81.8304 76.256V79ZM80.9344 77.416V77.056H79.9264C79.281 77.056 78.9584 77.2587 78.9584 77.664C78.9584 77.872 79.0384 78.032 79.1984 78.144C79.3584 78.2507 79.5797 78.304 79.8624 78.304C80.1504 78.304 80.401 78.224 80.6144 78.064C80.8277 77.904 80.9344 77.688 80.9344 77.416ZM83.9737 79H83.0777V73.064H83.9737V79ZM89.233 77.264H85.897C85.9183 77.5733 86.0597 77.824 86.321 78.016C86.5823 78.2027 86.881 78.296 87.217 78.296C87.7503 78.296 88.1557 78.128 88.433 77.792L88.945 78.352C88.4863 78.8267 87.889 79.064 87.153 79.064C86.5557 79.064 86.0463 78.8667 85.625 78.472C85.209 78.072 85.001 77.5387 85.001 76.872C85.001 76.2 85.2143 75.6667 85.641 75.272C86.0677 74.8773 86.569 74.68 87.145 74.68C87.7263 74.68 88.2197 74.856 88.625 75.208C89.0303 75.5547 89.233 76.0347 89.233 76.648V77.264ZM85.897 76.56H88.337C88.337 76.2027 88.225 75.928 88.001 75.736C87.777 75.544 87.4997 75.448 87.169 75.448C86.8437 75.448 86.5503 75.5493 86.289 75.752C86.0277 75.9493 85.897 76.2187 85.897 76.56ZM93.2503 77.728C93.2503 78.1333 93.1036 78.4587 92.8103 78.704C92.517 78.944 92.141 79.064 91.6823 79.064C91.373 79.064 91.0503 79.008 90.7143 78.896C90.3836 78.784 90.0903 78.6267 89.8343 78.424L90.2663 77.728C90.7623 78.1013 91.2423 78.288 91.7063 78.288C91.909 78.288 92.069 78.2427 92.1863 78.152C92.3036 78.056 92.3623 77.936 92.3623 77.792C92.3623 77.5787 92.0796 77.3867 91.5143 77.216C91.4716 77.2 91.4396 77.1893 91.4183 77.184C90.533 76.944 90.0903 76.544 90.0903 75.984C90.0903 75.5893 90.2423 75.2747 90.5463 75.04C90.8556 74.8 91.2556 74.68 91.7463 74.68C92.237 74.68 92.701 74.824 93.1383 75.112L92.8023 75.776C92.4556 75.5467 92.0796 75.432 91.6743 75.432C91.461 75.432 91.2876 75.472 91.1543 75.552C91.021 75.6267 90.9543 75.7413 90.9543 75.896C90.9543 76.0347 91.0236 76.136 91.1623 76.2C91.2583 76.248 91.3916 76.2933 91.5623 76.336C91.7383 76.3787 91.893 76.4213 92.0263 76.464C92.1596 76.5067 92.2876 76.5547 92.4103 76.608C92.5383 76.6613 92.6743 76.736 92.8183 76.832C93.1063 77.024 93.2503 77.3227 93.2503 77.728Z" fill="white"/>
<defs>
<filter id="filter0_ddd" x="0" y="0" width="108" height="108" filterUnits="userSpaceOnUse" color-interpolation-filters="sRGB">
<feFlood flood-opacity="0" result="BackgroundImageFix"/>
<feColorMatrix in="SourceAlpha" type="matrix" values="0 0 0 0 0 0 0 0 0 0 0 0 0 0 0 0 0 0 127 0"/>
<feOffset dy="4"/>
<feGaussianBlur stdDeviation="2"/>
<feColorMatrix type="matrix" values="0 0 0 0 0 0 0 0 0 0 0 0 0 0 0 0 0 0 0.25 0"/>
<feBlend mode="normal" in2="BackgroundImageFix" result="effect1_dropShadow"/>
<feColorMatrix in="SourceAlpha" type="matrix" values="0 0 0 0 0 0 0 0 0 0 0 0 0 0 0 0 0 0 127 0"/>
<feOffset dy="4"/>
<feGaussianBlur stdDeviation="2"/>
<feColorMatrix type="matrix" values="0 0 0 0 0 0 0 0 0 0 0 0 0 0 0 0 0 0 0.25 0"/>
<feBlend mode="normal" in2="effect1_dropShadow" result="effect2_dropShadow"/>
<feColorMatrix in="SourceAlpha" type="matrix" values="0 0 0 0 0 0 0 0 0 0 0 0 0 0 0 0 0 0 127 0"/>
<feOffset dy="4"/>
<feGaussianBlur stdDeviation="2"/>
<feColorMatrix type="matrix" values="0 0 0 0 0 0 0 0 0 0 0 0 0 0 0 0 0 0 0.25 0"/>
<feBlend mode="normal" in2="effect2_dropShadow" result="effect3_dropShadow"/>
<feBlend mode="normal" in="SourceGraphic" in2="effect3_dropShadow" result="shape"/>
</filter>
<filter id="filter1_d" x="15" y="18" width="78" height="55" filterUnits="userSpaceOnUse" color-interpolation-filters="sRGB">
<feFlood flood-opacity="0" result="BackgroundImageFix"/>
<feColorMatrix in="SourceAlpha" type="matrix" values="0 0 0 0 0 0 0 0 0 0 0 0 0 0 0 0 0 0 127 0"/>
<feOffset dy="4"/>
<feGaussianBlur stdDeviation="2"/>
<feColorMatrix type="matrix" values="0 0 0 0 0 0 0 0 0 0 0 0 0 0 0 0 0 0 0.25 0"/>
<feBlend mode="normal" in2="BackgroundImageFix" result="effect1_dropShadow"/>
<feBlend mode="normal" in="SourceGraphic" in2="effect1_dropShadow" result="shape"/>
</filter>
</defs>
</svg>
