<svg width="108" height="108" viewBox="0 0 108 108" fill="none" xmlns="http://www.w3.org/2000/svg">
<g filter="url(#filter0_ddd)">
<rect x="4" width="100" height="100" rx="20" fill="#545454"/>
</g>
<path d="M63 27C60.8783 27 58.8434 27.8429 57.3431 29.3431C55.8429 30.8434 55 32.8783 55 35C55 37.1217 55.8429 39.1566 57.3431 40.6569C58.8434 42.1571 60.8783 43 63 43L63 35V27Z" fill="#E3AB00"/>
<path d="M63 27C65.1217 27 67.1566 27.8429 68.6569 29.3431C70.1571 30.8434 71 32.8783 71 35C71 37.1217 70.1571 39.1566 68.6569 40.6569C67.1566 42.1571 65.1217 43 63 43L63 35V27Z" fill="#F7BC11"/>
<rect x="62" y="18" width="2" height="7" rx="1" fill="#F7BC11"/>
<rect x="71.0677" y="20.02" width="2" height="7" rx="1" transform="rotate(33 71.0677 20.02)" fill="#F7BC11"/>
<rect x="53" y="21.0893" width="2" height="7" rx="1" transform="rotate(-33 53 21.0893)" fill="#F7BC11"/>
<rect x="77.7495" y="27.1145" width="2" height="7" rx="1" transform="rotate(65 77.7495 27.1145)" fill="#F7BC11"/>
<rect x="47" y="28.8126" width="2" height="7" rx="1" transform="rotate(-65 47 28.8126)" fill="#F7BC11"/>
<rect x="79.4822" y="35.4391" width="2" height="7" rx="1" transform="rotate(89 79.4822 35.4391)" fill="#F7BC11"/>
<path d="M46.5 22L63 43L70.5 35.5L94 65H14L46.5 22Z" fill="#423B4B"/>
<path d="M37.4399 34L46.4999 22L57.4999 36L52.4999 33.5L48.9999 39L43.9999 33.5L40.9999 37.5L37.4399 34Z" fill="#FDFCFA"/>
<path d="M63 43L70.5 35L78 45L73.5 42.5L71.5 46L69 42L63 43Z" fill="#F5EBE2"/>
<path d="M36.0634 73.408V74.296H33.0794V75.776H35.7594V76.616H33.0794V78.112H36.1594V79H32.1354V73.408H36.0634ZM37.9218 74.744L38.8338 76.144L39.7778 74.744H40.8418L39.3538 76.824L40.9058 79H39.8018L38.7858 77.584L37.7938 79H36.7458L38.2578 76.832L36.8258 74.744H37.9218ZM43.5907 79.064C42.9987 79.064 42.4894 78.864 42.0627 78.464C41.636 78.0587 41.4227 77.5307 41.4227 76.88C41.4227 76.2293 41.644 75.7013 42.0867 75.296C42.5347 74.8853 43.0787 74.68 43.7187 74.68C44.3587 74.68 44.9 74.9013 45.3427 75.344L44.8147 75.992C44.4467 75.672 44.076 75.512 43.7027 75.512C43.3294 75.512 43.004 75.6373 42.7267 75.888C42.4547 76.1333 42.3187 76.4533 42.3187 76.848C42.3187 77.2373 42.4547 77.568 42.7267 77.84C42.9987 78.112 43.332 78.248 43.7267 78.248C44.1267 78.248 44.5027 78.0667 44.8547 77.704L45.3827 78.28C44.8654 78.8027 44.268 79.064 43.5907 79.064ZM49.2881 77.048V74.744H50.1841V79H49.2881V78.224C49.1441 78.4853 48.9441 78.6907 48.6881 78.84C48.4374 78.9893 48.1654 79.064 47.8721 79.064C47.3921 79.064 47.0027 78.9173 46.7041 78.624C46.4107 78.3307 46.2641 77.9067 46.2641 77.352V74.744H47.1601V77.08C47.1601 77.864 47.4854 78.256 48.1361 78.256C48.4454 78.256 48.7147 78.1547 48.9441 77.952C49.1734 77.744 49.2881 77.4427 49.2881 77.048ZM53.7159 75.584C53.2733 75.584 52.9399 75.728 52.7159 76.016C52.4919 76.304 52.3799 76.6907 52.3799 77.176V79H51.4839V74.744H52.3799V75.6C52.5239 75.3333 52.7186 75.1147 52.9639 74.944C53.2146 74.7733 53.4786 74.6853 53.7559 74.68L53.7639 75.584C53.7479 75.584 53.7319 75.584 53.7159 75.584ZM57.6956 77.728C57.6956 78.1333 57.549 78.4587 57.2556 78.704C56.9623 78.944 56.5863 79.064 56.1276 79.064C55.8183 79.064 55.4956 79.008 55.1596 78.896C54.829 78.784 54.5356 78.6267 54.2796 78.424L54.7116 77.728C55.2076 78.1013 55.6876 78.288 56.1516 78.288C56.3543 78.288 56.5143 78.2427 56.6316 78.152C56.749 78.056 56.8076 77.936 56.8076 77.792C56.8076 77.5787 56.525 77.3867 55.9596 77.216C55.917 77.2 55.885 77.1893 55.8636 77.184C54.9783 76.944 54.5356 76.544 54.5356 75.984C54.5356 75.5893 54.6876 75.2747 54.9916 75.04C55.301 74.8 55.701 74.68 56.1916 74.68C56.6823 74.68 57.1463 74.824 57.5836 75.112L57.2476 75.776C56.901 75.5467 56.525 75.432 56.1196 75.432C55.9063 75.432 55.733 75.472 55.5996 75.552C55.4663 75.6267 55.3996 75.7413 55.3996 75.896C55.3996 76.0347 55.469 76.136 55.6076 76.2C55.7036 76.248 55.837 76.2933 56.0076 76.336C56.1836 76.3787 56.3383 76.4213 56.4716 76.464C56.605 76.5067 56.733 76.5547 56.8556 76.608C56.9836 76.6613 57.1196 76.736 57.2636 76.832C57.5516 77.024 57.6956 77.3227 57.6956 77.728ZM59.6065 79H58.7105V74.744H59.6065V79ZM58.7665 73.896C58.6545 73.784 58.5985 73.6507 58.5985 73.496C58.5985 73.3413 58.6545 73.208 58.7665 73.096C58.8785 72.984 59.0118 72.928 59.1665 72.928C59.3212 72.928 59.4545 72.984 59.5665 73.096C59.6785 73.208 59.7345 73.3413 59.7345 73.496C59.7345 73.6507 59.6785 73.784 59.5665 73.896C59.4545 74.008 59.3212 74.064 59.1665 74.064C59.0118 74.064 58.8785 74.008 58.7665 73.896ZM61.8978 77.88C62.1538 78.136 62.4765 78.264 62.8658 78.264C63.2551 78.264 63.5751 78.136 63.8258 77.88C64.0818 77.6187 64.2098 77.2827 64.2098 76.872C64.2098 76.4613 64.0818 76.128 63.8258 75.872C63.5751 75.6107 63.2551 75.48 62.8658 75.48C62.4765 75.48 62.1538 75.6107 61.8978 75.872C61.6471 76.128 61.5218 76.4613 61.5218 76.872C61.5218 77.2827 61.6471 77.6187 61.8978 77.88ZM64.4658 78.432C64.0391 78.8533 63.5058 79.064 62.8658 79.064C62.2258 79.064 61.6925 78.8533 61.2658 78.432C60.8391 78.0053 60.6258 77.4853 60.6258 76.872C60.6258 76.2587 60.8391 75.7413 61.2658 75.32C61.6925 74.8933 62.2258 74.68 62.8658 74.68C63.5058 74.68 64.0391 74.8933 64.4658 75.32C64.8925 75.7413 65.1058 76.2587 65.1058 76.872C65.1058 77.4853 64.8925 78.0053 64.4658 78.432ZM67.0206 76.696V79H66.1246V74.744H67.0206V75.52C67.1646 75.2587 67.3619 75.0533 67.6126 74.904C67.8686 74.7547 68.1432 74.68 68.4366 74.68C68.9166 74.68 69.3032 74.8267 69.5966 75.12C69.8952 75.4133 70.0446 75.8373 70.0446 76.392V79H69.1486V76.664C69.1486 75.88 68.8232 75.488 68.1726 75.488C67.8632 75.488 67.5939 75.592 67.3646 75.8C67.1352 76.0027 67.0206 76.3013 67.0206 76.696ZM75.2564 77.264H71.9204C71.9418 77.5733 72.0831 77.824 72.3444 78.016C72.6058 78.2027 72.9044 78.296 73.2404 78.296C73.7738 78.296 74.1791 78.128 74.4564 77.792L74.9684 78.352C74.5098 78.8267 73.9124 79.064 73.1764 79.064C72.5791 79.064 72.0698 78.8667 71.6484 78.472C71.2324 78.072 71.0244 77.5387 71.0244 76.872C71.0244 76.2 71.2378 75.6667 71.6644 75.272C72.0911 74.8773 72.5924 74.68 73.1684 74.68C73.7498 74.68 74.2431 74.856 74.6484 75.208C75.0538 75.5547 75.2564 76.0347 75.2564 76.648V77.264ZM71.9204 76.56H74.3604C74.3604 76.2027 74.2484 75.928 74.0244 75.736C73.8004 75.544 73.5231 75.448 73.1924 75.448C72.8671 75.448 72.5738 75.5493 72.3124 75.752C72.0511 75.9493 71.9204 76.2187 71.9204 76.56ZM79.2738 77.728C79.2738 78.1333 79.1271 78.4587 78.8338 78.704C78.5404 78.944 78.1644 79.064 77.7057 79.064C77.3964 79.064 77.0738 79.008 76.7378 78.896C76.4071 78.784 76.1138 78.6267 75.8577 78.424L76.2898 77.728C76.7858 78.1013 77.2658 78.288 77.7298 78.288C77.9324 78.288 78.0924 78.2427 78.2098 78.152C78.3271 78.056 78.3858 77.936 78.3858 77.792C78.3858 77.5787 78.1031 77.3867 77.5378 77.216C77.4951 77.2 77.4631 77.1893 77.4418 77.184C76.5564 76.944 76.1138 76.544 76.1138 75.984C76.1138 75.5893 76.2658 75.2747 76.5698 75.04C76.8791 74.8 77.2791 74.68 77.7698 74.68C78.2604 74.68 78.7244 74.824 79.1618 75.112L78.8258 75.776C78.4791 75.5467 78.1031 75.432 77.6978 75.432C77.4844 75.432 77.3111 75.472 77.1778 75.552C77.0444 75.6267 76.9778 75.7413 76.9778 75.896C76.9778 76.0347 77.0471 76.136 77.1858 76.2C77.2818 76.248 77.4151 76.2933 77.5858 76.336C77.7618 76.3787 77.9164 76.4213 78.0498 76.464C78.1831 76.5067 78.3111 76.5547 78.4338 76.608C78.5618 76.6613 78.6978 76.736 78.8418 76.832C79.1298 77.024 79.2738 77.3227 79.2738 77.728Z" fill="white"/>
<defs>
<filter id="filter0_ddd" x="0" y="0" width="108" height="108" filterUnits="userSpaceOnUse" color-interpolation-filters="sRGB">
<feFlood flood-opacity="0" result="BackgroundImageFix"/>
<feColorMatrix in="SourceAlpha" type="matrix" values="0 0 0 0 0 0 0 0 0 0 0 0 0 0 0 0 0 0 127 0"/>
<feOffset dy="4"/>
<feGaussianBlur stdDeviation="2"/>
<feColorMatrix type="matrix" values="0 0 0 0 0 0 0 0 0 0 0 0 0 0 0 0 0 0 0.25 0"/>
<feBlend mode="normal" in2="BackgroundImageFix" result="effect1_dropShadow"/>
<feColorMatrix in="SourceAlpha" type="matrix" values="0 0 0 0 0 0 0 0 0 0 0 0 0 0 0 0 0 0 127 0"/>
<feOffset dy="4"/>
<feGaussianBlur stdDeviation="2"/>
<feColorMatrix type="matrix" values="0 0 0 0 0 0 0 0 0 0 0 0 0 0 0 0 0 0 0.25 0"/>
<feBlend mode="normal" in2="effect1_dropShadow" result="effect2_dropShadow"/>
<feColorMatrix in="SourceAlpha" type="matrix" values="0 0 0 0 0 0 0 0 0 0 0 0 0 0 0 0 0 0 127 0"/>
<feOffset dy="4"/>
<feGaussianBlur stdDeviation="2"/>
<feColorMatrix type="matrix" values="0 0 0 0 0 0 0 0 0 0 0 0 0 0 0 0 0 0 0.25 0"/>
<feBlend mode="normal" in2="effect2_dropShadow" result="effect3_dropShadow"/>
<feBlend mode="normal" in="SourceGraphic" in2="effect3_dropShadow" result="shape"/>
</filter>
</defs>
</svg>
