<svg width="108" height="108" viewBox="0 0 108 108" fill="none" xmlns="http://www.w3.org/2000/svg">
<g filter="url(#filter0_ddd)">
<rect x="4" width="100" height="100" rx="20" fill="#345066"/>
</g>
<g filter="url(#filter1_d)">
<rect x="15.4211" y="26.5345" width="52.1053" height="31.5747" fill="#F9BF6E"/>
<rect x="14" y="23" width="55.1842" height="3.53448" fill="#ED846B"/>
<rect x="53.3158" y="34.3103" width="41.6842" height="3.53448" fill="#D0775F"/>
<rect x="15.4211" y="58.1092" width="50.6842" height="5.8908" fill="#ED846B"/>
<rect x="55.4474" y="58.1092" width="37.6579" height="5.8908" fill="#D0775F"/>
<rect x="55.4474" y="37.8448" width="37.6579" height="20.2644" fill="#F6A42A"/>
<rect x="57.1053" y="62.1149" width="17.0526" height="1.88506" fill="#F9BF6E"/>
<rect x="58.7632" y="59.9942" width="13.7368" height="1.17816" fill="#F9BF6E"/>
<rect x="60.4211" y="58.1092" width="10.4211" height="0.942529" fill="#F9BF6E"/>
<rect x="60.4211" y="44.6782" width="10.4211" height="13.431" fill="#ED846B"/>
<rect x="61.1316" y="45.6207" width="9" height="12.4885" fill="#9BD9E9"/>
<rect x="36.2632" y="53.3966" width="9.23684" height="1.41379" fill="#F6A42A"/>
<rect x="36.9737" y="44.6782" width="7.81579" height="8.71839" fill="#ED846B"/>
<rect x="37.9211" y="45.6207" width="5.92105" height="7.77586" fill="#9BD9E9"/>
<rect x="22.2895" y="53.3966" width="9.23684" height="1.41379" fill="#F6A42A"/>
<rect x="23" y="44.6782" width="7.81579" height="8.71839" fill="#ED846B"/>
<rect x="23.9474" y="45.6207" width="5.92105" height="7.77586" fill="#9BD9E9"/>
<rect x="73.4474" y="53.3966" width="16.5789" height="1.41379" fill="#FFD05B"/>
<rect x="74.3947" y="44.6782" width="14.9211" height="8.71839" fill="#ED846B"/>
<rect x="75.1053" y="45.6207" width="13.5" height="7.77586" fill="#9BD9E9"/>
<rect x="36.2632" y="38.7874" width="9.23684" height="1.41379" fill="#F6A42A"/>
<rect x="36.9737" y="30.069" width="7.81579" height="8.71839" fill="#ED846B"/>
<rect x="37.9211" y="31.0115" width="5.92105" height="7.77586" fill="#9BD9E9"/>
<rect x="22.2895" y="38.7874" width="9.23684" height="1.41379" fill="#F6A42A"/>
<rect x="23" y="30.069" width="7.81579" height="8.71839" fill="#ED846B"/>
<rect x="23.9474" y="31.0115" width="5.92105" height="7.77586" fill="#9BD9E9"/>
</g>
<path d="M24.5695 74.144C24.2975 74.144 24.0735 74.2 23.8975 74.312C23.7215 74.424 23.6335 74.5947 23.6335 74.824C23.6335 75.048 23.7215 75.2213 23.8975 75.344C24.0735 75.4613 24.4468 75.5893 25.0175 75.728C25.5935 75.8667 26.0255 76.0613 26.3135 76.312C26.6068 76.5627 26.7535 76.9333 26.7535 77.424C26.7535 77.9093 26.5695 78.304 26.2015 78.608C25.8335 78.912 25.3508 79.064 24.7535 79.064C23.8788 79.064 23.1028 78.7627 22.4255 78.16L23.0175 77.448C23.5828 77.9387 24.1695 78.184 24.7775 78.184C25.0815 78.184 25.3215 78.12 25.4975 77.992C25.6788 77.8587 25.7695 77.6853 25.7695 77.472C25.7695 77.2533 25.6841 77.0853 25.5135 76.968C25.3481 76.8453 25.0601 76.736 24.6495 76.64C24.2388 76.5387 23.9268 76.448 23.7135 76.368C23.5001 76.2827 23.3108 76.1733 23.1455 76.04C22.8148 75.7893 22.6495 75.4053 22.6495 74.888C22.6495 74.3707 22.8361 73.9733 23.2095 73.696C23.5881 73.4133 24.0548 73.272 24.6095 73.272C24.9668 73.272 25.3215 73.3307 25.6735 73.448C26.0255 73.5653 26.3295 73.7307 26.5855 73.944L26.0815 74.656C25.9161 74.5067 25.6921 74.384 25.4095 74.288C25.1268 74.192 24.8468 74.144 24.5695 74.144ZM31.2405 79H30.4245V78.432C30.0725 78.8533 29.6005 79.064 29.0085 79.064C28.5659 79.064 28.1979 78.9387 27.9045 78.688C27.6165 78.4373 27.4725 78.104 27.4725 77.688C27.4725 77.2667 27.6272 76.952 27.9365 76.744C28.2459 76.536 28.6645 76.432 29.1925 76.432H30.3525V76.272C30.3525 75.7067 30.0379 75.424 29.4085 75.424C29.0139 75.424 28.6032 75.568 28.1765 75.856L27.7765 75.296C28.2939 74.8853 28.8805 74.68 29.5365 74.68C30.0379 74.68 30.4459 74.808 30.7605 75.064C31.0805 75.3147 31.2405 75.712 31.2405 76.256V79ZM30.3445 77.416V77.056H29.3365C28.6912 77.056 28.3685 77.2587 28.3685 77.664C28.3685 77.872 28.4485 78.032 28.6085 78.144C28.7685 78.2507 28.9899 78.304 29.2725 78.304C29.5605 78.304 29.8112 78.224 30.0245 78.064C30.2379 77.904 30.3445 77.688 30.3445 77.416ZM33.3838 79H32.4878V73.064H33.3838V79ZM38.1312 79H37.3152V78.432C36.9632 78.8533 36.4912 79.064 35.8992 79.064C35.4565 79.064 35.0885 78.9387 34.7952 78.688C34.5072 78.4373 34.3632 78.104 34.3632 77.688C34.3632 77.2667 34.5178 76.952 34.8272 76.744C35.1365 76.536 35.5552 76.432 36.0832 76.432H37.2432V76.272C37.2432 75.7067 36.9285 75.424 36.2992 75.424C35.9045 75.424 35.4938 75.568 35.0672 75.856L34.6672 75.296C35.1845 74.8853 35.7712 74.68 36.4272 74.68C36.9285 74.68 37.3365 74.808 37.6512 75.064C37.9712 75.3147 38.1312 75.712 38.1312 76.256V79ZM37.2352 77.416V77.056H36.2272C35.5818 77.056 35.2592 77.2587 35.2592 77.664C35.2592 77.872 35.3392 78.032 35.4992 78.144C35.6592 78.2507 35.8805 78.304 36.1632 78.304C36.4512 78.304 36.7018 78.224 36.9152 78.064C37.1285 77.904 37.2352 77.688 37.2352 77.416ZM43.3098 79.064C42.7711 79.064 42.3018 78.8613 41.9018 78.456C41.5018 78.0507 41.3018 77.5173 41.3018 76.856C41.3018 76.1947 41.5071 75.6667 41.9178 75.272C42.3284 74.8773 42.8164 74.68 43.3818 74.68C43.9524 74.68 44.4111 74.92 44.7578 75.4V73.064H45.6538V79H44.7578V78.36C44.4271 78.8293 43.9444 79.064 43.3098 79.064ZM42.1978 76.896C42.1978 77.3013 42.3284 77.632 42.5898 77.888C42.8511 78.144 43.1578 78.272 43.5098 78.272C43.8618 78.272 44.1604 78.144 44.4058 77.888C44.6511 77.6267 44.7738 77.2933 44.7738 76.888C44.7738 76.4827 44.6511 76.144 44.4058 75.872C44.1604 75.6 43.8591 75.464 43.5018 75.464C43.1444 75.464 42.8378 75.6 42.5818 75.872C42.3258 76.144 42.1978 76.4853 42.1978 76.896ZM50.9088 77.264H47.5728C47.5941 77.5733 47.7354 77.824 47.9968 78.016C48.2581 78.2027 48.5568 78.296 48.8928 78.296C49.4261 78.296 49.8314 78.128 50.1088 77.792L50.6208 78.352C50.1621 78.8267 49.5648 79.064 48.8288 79.064C48.2314 79.064 47.7221 78.8667 47.3008 78.472C46.8848 78.072 46.6768 77.5387 46.6768 76.872C46.6768 76.2 46.8901 75.6667 47.3168 75.272C47.7434 74.8773 48.2448 74.68 48.8208 74.68C49.4021 74.68 49.8954 74.856 50.3008 75.208C50.7061 75.5547 50.9088 76.0347 50.9088 76.648V77.264ZM47.5728 76.56H50.0128C50.0128 76.2027 49.9008 75.928 49.6768 75.736C49.4528 75.544 49.1754 75.448 48.8448 75.448C48.5194 75.448 48.2261 75.5493 47.9648 75.752C47.7034 75.9493 47.5728 76.2187 47.5728 76.56ZM58.1454 73.408V74.296H55.1614V75.776H57.8414V76.616H55.1614V78.112H58.2414V79H54.2174V73.408H58.1454ZM60.4518 79L58.7398 74.744H59.6678L60.9638 77.96L62.2598 74.744H63.1878L61.4758 79H60.4518ZM67.8619 77.264H64.5259C64.5472 77.5733 64.6886 77.824 64.9499 78.016C65.2112 78.2027 65.5099 78.296 65.8459 78.296C66.3792 78.296 66.7846 78.128 67.0619 77.792L67.5739 78.352C67.1152 78.8267 66.5179 79.064 65.7819 79.064C65.1846 79.064 64.6752 78.8667 64.2539 78.472C63.8379 78.072 63.6299 77.5387 63.6299 76.872C63.6299 76.2 63.8432 75.6667 64.2699 75.272C64.6966 74.8773 65.1979 74.68 65.7739 74.68C66.3552 74.68 66.8486 74.856 67.2539 75.208C67.6592 75.5547 67.8619 76.0347 67.8619 76.648V77.264ZM64.5259 76.56H66.9659C66.9659 76.2027 66.8539 75.928 66.6299 75.736C66.4059 75.544 66.1286 75.448 65.7979 75.448C65.4726 75.448 65.1792 75.5493 64.9179 75.752C64.6566 75.9493 64.5259 76.2187 64.5259 76.56ZM69.7432 76.696V79H68.8472V74.744H69.7432V75.52C69.8872 75.2587 70.0846 75.0533 70.3352 74.904C70.5912 74.7547 70.8659 74.68 71.1592 74.68C71.6392 74.68 72.0259 74.8267 72.3192 75.12C72.6179 75.4133 72.7672 75.8373 72.7672 76.392V79H71.8712V76.664C71.8712 75.88 71.5459 75.488 70.8952 75.488C70.5859 75.488 70.3166 75.592 70.0872 75.8C69.8579 76.0027 69.7432 76.3013 69.7432 76.696ZM75.0684 75.464V77.624C75.0684 77.8267 75.1217 77.9893 75.2284 78.112C75.3351 78.2293 75.4844 78.288 75.6764 78.288C75.8684 78.288 76.0524 78.1947 76.2284 78.008L76.5964 78.64C76.2817 78.9227 75.9324 79.064 75.5484 79.064C75.1697 79.064 74.8444 78.9333 74.5724 78.672C74.3057 78.4053 74.1724 78.048 74.1724 77.6V75.464H73.6364V74.744H74.1724V73.408H75.0684V74.744H76.1884V75.464H75.0684ZM78.2689 77.88C78.5249 78.136 78.8476 78.264 79.2369 78.264C79.6262 78.264 79.9462 78.136 80.1969 77.88C80.4529 77.6187 80.5809 77.2827 80.5809 76.872C80.5809 76.4613 80.4529 76.128 80.1969 75.872C79.9462 75.6107 79.6262 75.48 79.2369 75.48C78.8476 75.48 78.5249 75.6107 78.2689 75.872C78.0182 76.128 77.8929 76.4613 77.8929 76.872C77.8929 77.2827 78.0182 77.6187 78.2689 77.88ZM80.8369 78.432C80.4102 78.8533 79.8769 79.064 79.2369 79.064C78.5969 79.064 78.0636 78.8533 77.6369 78.432C77.2102 78.0053 76.9969 77.4853 76.9969 76.872C76.9969 76.2587 77.2102 75.7413 77.6369 75.32C78.0636 74.8933 78.5969 74.68 79.2369 74.68C79.8769 74.68 80.4102 74.8933 80.8369 75.32C81.2636 75.7413 81.4769 76.2587 81.4769 76.872C81.4769 77.4853 81.2636 78.0053 80.8369 78.432ZM85.5277 77.728C85.5277 78.1333 85.381 78.4587 85.0877 78.704C84.7943 78.944 84.4183 79.064 83.9597 79.064C83.6503 79.064 83.3277 79.008 82.9917 78.896C82.661 78.784 82.3677 78.6267 82.1117 78.424L82.5437 77.728C83.0397 78.1013 83.5197 78.288 83.9837 78.288C84.1863 78.288 84.3463 78.2427 84.4637 78.152C84.581 78.056 84.6397 77.936 84.6397 77.792C84.6397 77.5787 84.357 77.3867 83.7917 77.216C83.749 77.2 83.717 77.1893 83.6957 77.184C82.8103 76.944 82.3677 76.544 82.3677 75.984C82.3677 75.5893 82.5197 75.2747 82.8237 75.04C83.133 74.8 83.533 74.68 84.0237 74.68C84.5143 74.68 84.9783 74.824 85.4157 75.112L85.0797 75.776C84.733 75.5467 84.357 75.432 83.9517 75.432C83.7383 75.432 83.565 75.472 83.4317 75.552C83.2983 75.6267 83.2317 75.7413 83.2317 75.896C83.2317 76.0347 83.301 76.136 83.4397 76.2C83.5357 76.248 83.669 76.2933 83.8397 76.336C84.0157 76.3787 84.1703 76.4213 84.3037 76.464C84.437 76.5067 84.565 76.5547 84.6877 76.608C84.8157 76.6613 84.9517 76.736 85.0957 76.832C85.3837 77.024 85.5277 77.3227 85.5277 77.728Z" fill="white"/>
<defs>
<filter id="filter0_ddd" x="0" y="0" width="108" height="108" filterUnits="userSpaceOnUse" color-interpolation-filters="sRGB">
<feFlood flood-opacity="0" result="BackgroundImageFix"/>
<feColorMatrix in="SourceAlpha" type="matrix" values="0 0 0 0 0 0 0 0 0 0 0 0 0 0 0 0 0 0 127 0"/>
<feOffset dy="4"/>
<feGaussianBlur stdDeviation="2"/>
<feColorMatrix type="matrix" values="0 0 0 0 0 0 0 0 0 0 0 0 0 0 0 0 0 0 0.25 0"/>
<feBlend mode="normal" in2="BackgroundImageFix" result="effect1_dropShadow"/>
<feColorMatrix in="SourceAlpha" type="matrix" values="0 0 0 0 0 0 0 0 0 0 0 0 0 0 0 0 0 0 127 0"/>
<feOffset dy="4"/>
<feGaussianBlur stdDeviation="2"/>
<feColorMatrix type="matrix" values="0 0 0 0 0 0 0 0 0 0 0 0 0 0 0 0 0 0 0.25 0"/>
<feBlend mode="normal" in2="effect1_dropShadow" result="effect2_dropShadow"/>
<feColorMatrix in="SourceAlpha" type="matrix" values="0 0 0 0 0 0 0 0 0 0 0 0 0 0 0 0 0 0 127 0"/>
<feOffset dy="4"/>
<feGaussianBlur stdDeviation="2"/>
<feColorMatrix type="matrix" values="0 0 0 0 0 0 0 0 0 0 0 0 0 0 0 0 0 0 0.25 0"/>
<feBlend mode="normal" in2="effect2_dropShadow" result="effect3_dropShadow"/>
<feBlend mode="normal" in="SourceGraphic" in2="effect3_dropShadow" result="shape"/>
</filter>
<filter id="filter1_d" x="10" y="23" width="89" height="49" filterUnits="userSpaceOnUse" color-interpolation-filters="sRGB">
<feFlood flood-opacity="0" result="BackgroundImageFix"/>
<feColorMatrix in="SourceAlpha" type="matrix" values="0 0 0 0 0 0 0 0 0 0 0 0 0 0 0 0 0 0 127 0"/>
<feOffset dy="4"/>
<feGaussianBlur stdDeviation="2"/>
<feColorMatrix type="matrix" values="0 0 0 0 0 0 0 0 0 0 0 0 0 0 0 0 0 0 0.25 0"/>
<feBlend mode="normal" in2="BackgroundImageFix" result="effect1_dropShadow"/>
<feBlend mode="normal" in="SourceGraphic" in2="effect1_dropShadow" result="shape"/>
</filter>
</defs>
</svg>
