<svg width="174" height="58" viewBox="0 0 174 58" fill="none" xmlns="http://www.w3.org/2000/svg">
<g filter="url(#filter0_dddddddd)">
<path d="M77.6998 16.1912C86.9223 10.1195 107.104 8.97262 112 0C107.262 25.5686 96.8713 36.9699 96.8713 36.9699C85.4694 51.6769 64.9083 52.9924 64.624 45.6052C67.2139 29.3128 91.1546 24.3205 98.9874 14.8082C84.5219 27.3564 70.8228 22.499 62.1605 45.6727C61.4656 45.3354 62.4132 26.8841 77.6998 16.1912Z" fill="#81BD41"/>
<path d="M7.60986 34H4.65986V16.525H9.25986L14.5349 27.5L19.8099 16.525H24.3849V34H21.4349V20.35L15.3349 32.475H13.6849L7.60986 20.35V34ZM31.6448 34H28.8448V20.7H31.6448V34ZM29.0198 18.05C28.6698 17.7 28.4948 17.2833 28.4948 16.8C28.4948 16.3167 28.6698 15.9 29.0198 15.55C29.3698 15.2 29.7865 15.025 30.2698 15.025C30.7532 15.025 31.1698 15.2 31.5198 15.55C31.8698 15.9 32.0448 16.3167 32.0448 16.8C32.0448 17.2833 31.8698 17.7 31.5198 18.05C31.1698 18.4 30.7532 18.575 30.2698 18.575C29.7865 18.575 29.3698 18.4 29.0198 18.05ZM50.0552 22.2C50.0552 25.0833 48.7968 26.9 46.2802 27.65L50.8552 34H47.1052L42.9302 28.125H39.0552V34H36.1052V16.525H42.6052C45.2718 16.525 47.1802 16.975 48.3302 17.875C49.4802 18.775 50.0552 20.2167 50.0552 22.2ZM42.7302 25.45C44.3968 25.45 45.5302 25.1917 46.1302 24.675C46.7302 24.1583 47.0302 23.3333 47.0302 22.2C47.0302 21.05 46.7218 20.2667 46.1052 19.85C45.4885 19.4167 44.3885 19.2 42.8052 19.2H39.0552V25.45H42.7302ZM66.2687 28.575H55.8437C55.9103 29.5417 56.352 30.325 57.1687 30.925C57.9853 31.5083 58.9187 31.8 59.9687 31.8C61.6353 31.8 62.902 31.275 63.7687 30.225L65.3687 31.975C63.9353 33.4583 62.0687 34.2 59.7687 34.2C57.902 34.2 56.3103 33.5833 54.9937 32.35C53.6937 31.1 53.0437 29.4333 53.0437 27.35C53.0437 25.25 53.7103 23.5833 55.0437 22.35C56.377 21.1167 57.9437 20.5 59.7437 20.5C61.5603 20.5 63.102 21.05 64.3687 22.15C65.6353 23.2333 66.2687 24.7333 66.2687 26.65V28.575ZM55.8437 26.375H63.4687C63.4687 25.2583 63.1187 24.4 62.4187 23.8C61.7187 23.2 60.852 22.9 59.8187 22.9C58.802 22.9 57.8853 23.2167 57.0687 23.85C56.252 24.4667 55.8437 25.3083 55.8437 26.375ZM78.8228 30.025C78.8228 31.2917 78.3644 32.3083 77.4478 33.075C76.5311 33.825 75.3561 34.2 73.9228 34.2C72.9561 34.2 71.9478 34.025 70.8978 33.675C69.8644 33.325 68.9478 32.8333 68.1478 32.2L69.4978 30.025C71.0478 31.1917 72.5478 31.775 73.9978 31.775C74.6311 31.775 75.1311 31.6333 75.4978 31.35C75.8644 31.05 76.0478 30.675 76.0478 30.225C76.0478 29.5583 75.1644 28.9583 73.3978 28.425C73.2644 28.375 73.1644 28.3417 73.0978 28.325C70.3311 27.575 68.9478 26.325 68.9478 24.575C68.9478 23.3417 69.4228 22.3583 70.3728 21.625C71.3394 20.875 72.5894 20.5 74.1228 20.5C75.6561 20.5 77.1061 20.95 78.4728 21.85L77.4228 23.925C76.3394 23.2083 75.1644 22.85 73.8978 22.85C73.2311 22.85 72.6894 22.975 72.2728 23.225C71.8561 23.4583 71.6478 23.8167 71.6478 24.3C71.6478 24.7333 71.8644 25.05 72.2978 25.25C72.5978 25.4 73.0144 25.5417 73.5478 25.675C74.0978 25.8083 74.5811 25.9417 74.9978 26.075C75.4144 26.2083 75.8144 26.3583 76.1978 26.525C76.5978 26.6917 77.0228 26.925 77.4728 27.225C78.3728 27.825 78.8228 28.7583 78.8228 30.025ZM94.3692 28.575H83.9442C84.0109 29.5417 84.4526 30.325 85.2692 30.925C86.0859 31.5083 87.0192 31.8 88.0692 31.8C89.7359 31.8 91.0026 31.275 91.8692 30.225L93.4692 31.975C92.0359 33.4583 90.1692 34.2 87.8692 34.2C86.0026 34.2 84.4109 33.5833 83.0942 32.35C81.7942 31.1 81.1442 29.4333 81.1442 27.35C81.1442 25.25 81.8109 23.5833 83.1442 22.35C84.4776 21.1167 86.0442 20.5 87.8442 20.5C89.6609 20.5 91.2026 21.05 92.4692 22.15C93.7359 23.2333 94.3692 24.7333 94.3692 26.65V28.575ZM83.9442 26.375H91.5692C91.5692 25.2583 91.2192 24.4 90.5192 23.8C89.8192 23.2 88.9526 22.9 87.9192 22.9C86.9026 22.9 85.9859 23.2167 85.1692 23.85C84.3526 24.4667 83.9442 25.3083 83.9442 26.375ZM104.423 23.325C103.04 23.325 101.998 23.775 101.298 24.675C100.598 25.575 100.248 26.7833 100.248 28.3V34H97.4483V20.7H100.248V23.375C100.698 22.5417 101.307 21.8583 102.073 21.325C102.857 20.7917 103.682 20.5167 104.548 20.5L104.573 23.325C104.523 23.325 104.473 23.325 104.423 23.325ZM110.91 34L105.56 20.7H108.46L112.51 30.75L116.56 20.7H119.46L114.11 34H110.91ZM132.296 34H129.746V32.225C128.646 33.5417 127.171 34.2 125.321 34.2C123.937 34.2 122.787 33.8083 121.871 33.025C120.971 32.2417 120.521 31.2 120.521 29.9C120.521 28.5833 121.004 27.6 121.971 26.95C122.937 26.3 124.246 25.975 125.896 25.975H129.521V25.475C129.521 23.7083 128.537 22.825 126.571 22.825C125.337 22.825 124.054 23.275 122.721 24.175L121.471 22.425C123.087 21.1417 124.921 20.5 126.971 20.5C128.537 20.5 129.812 20.9 130.796 21.7C131.796 22.4833 132.296 23.725 132.296 25.425V34ZM129.496 29.05V27.925H126.346C124.329 27.925 123.321 28.5583 123.321 29.825C123.321 30.475 123.571 30.975 124.071 31.325C124.571 31.6583 125.262 31.825 126.146 31.825C127.046 31.825 127.829 31.575 128.496 31.075C129.162 30.575 129.496 29.9 129.496 29.05ZM144.568 31.325C145.585 31.325 146.46 31.1583 147.193 30.825C147.927 30.475 148.693 29.925 149.493 29.175L151.393 31.125C149.543 33.175 147.293 34.2 144.643 34.2C142.01 34.2 139.818 33.35 138.068 31.65C136.335 29.95 135.468 27.8 135.468 25.2C135.468 22.6 136.352 20.4333 138.118 18.7C139.902 16.9667 142.143 16.1 144.843 16.1C147.56 16.1 149.827 17.1 151.643 19.1L149.768 21.15C148.935 20.35 148.143 19.7917 147.393 19.475C146.66 19.1583 145.793 19 144.793 19C143.027 19 141.543 19.575 140.343 20.725C139.143 21.8583 138.543 23.3167 138.543 25.1C138.543 26.8667 139.135 28.35 140.318 29.55C141.518 30.7333 142.935 31.325 144.568 31.325ZM168.952 22.2C168.952 25.0833 167.693 26.9 165.177 27.65L169.752 34H166.002L161.827 28.125H157.952V34H155.002V16.525H161.502C164.168 16.525 166.077 16.975 167.227 17.875C168.377 18.775 168.952 20.2167 168.952 22.2ZM161.627 25.45C163.293 25.45 164.427 25.1917 165.027 24.675C165.627 24.1583 165.927 23.3333 165.927 22.2C165.927 21.05 165.618 20.2667 165.002 19.85C164.385 19.4167 163.285 19.2 161.702 19.2H157.952V25.45H161.627Z" fill="white"/>
</g>
<defs>
<filter id="filter0_dddddddd" x="0.659912" y="0" width="173.092" height="58" filterUnits="userSpaceOnUse" color-interpolation-filters="sRGB">
<feFlood flood-opacity="0" result="BackgroundImageFix"/>
<feColorMatrix in="SourceAlpha" type="matrix" values="0 0 0 0 0 0 0 0 0 0 0 0 0 0 0 0 0 0 127 0"/>
<feOffset dy="4"/>
<feGaussianBlur stdDeviation="2"/>
<feColorMatrix type="matrix" values="0 0 0 0 0 0 0 0 0 0 0 0 0 0 0 0 0 0 0.25 0"/>
<feBlend mode="normal" in2="BackgroundImageFix" result="effect1_dropShadow"/>
<feColorMatrix in="SourceAlpha" type="matrix" values="0 0 0 0 0 0 0 0 0 0 0 0 0 0 0 0 0 0 127 0"/>
<feOffset dy="4"/>
<feGaussianBlur stdDeviation="2"/>
<feColorMatrix type="matrix" values="0 0 0 0 0 0 0 0 0 0 0 0 0 0 0 0 0 0 0.25 0"/>
<feBlend mode="normal" in2="effect1_dropShadow" result="effect2_dropShadow"/>
<feColorMatrix in="SourceAlpha" type="matrix" values="0 0 0 0 0 0 0 0 0 0 0 0 0 0 0 0 0 0 127 0"/>
<feOffset dy="4"/>
<feGaussianBlur stdDeviation="2"/>
<feColorMatrix type="matrix" values="0 0 0 0 0 0 0 0 0 0 0 0 0 0 0 0 0 0 0.25 0"/>
<feBlend mode="normal" in2="effect2_dropShadow" result="effect3_dropShadow"/>
<feColorMatrix in="SourceAlpha" type="matrix" values="0 0 0 0 0 0 0 0 0 0 0 0 0 0 0 0 0 0 127 0"/>
<feOffset dy="4"/>
<feGaussianBlur stdDeviation="2"/>
<feColorMatrix type="matrix" values="0 0 0 0 0 0 0 0 0 0 0 0 0 0 0 0 0 0 0.25 0"/>
<feBlend mode="normal" in2="effect3_dropShadow" result="effect4_dropShadow"/>
<feColorMatrix in="SourceAlpha" type="matrix" values="0 0 0 0 0 0 0 0 0 0 0 0 0 0 0 0 0 0 127 0"/>
<feOffset dy="4"/>
<feGaussianBlur stdDeviation="2"/>
<feColorMatrix type="matrix" values="0 0 0 0 0 0 0 0 0 0 0 0 0 0 0 0 0 0 0.25 0"/>
<feBlend mode="normal" in2="effect4_dropShadow" result="effect5_dropShadow"/>
<feColorMatrix in="SourceAlpha" type="matrix" values="0 0 0 0 0 0 0 0 0 0 0 0 0 0 0 0 0 0 127 0"/>
<feOffset dy="4"/>
<feGaussianBlur stdDeviation="2"/>
<feColorMatrix type="matrix" values="0 0 0 0 0 0 0 0 0 0 0 0 0 0 0 0 0 0 0.25 0"/>
<feBlend mode="normal" in2="effect5_dropShadow" result="effect6_dropShadow"/>
<feColorMatrix in="SourceAlpha" type="matrix" values="0 0 0 0 0 0 0 0 0 0 0 0 0 0 0 0 0 0 127 0"/>
<feOffset dy="4"/>
<feGaussianBlur stdDeviation="2"/>
<feColorMatrix type="matrix" values="0 0 0 0 0 0 0 0 0 0 0 0 0 0 0 0 0 0 0.25 0"/>
<feBlend mode="normal" in2="effect6_dropShadow" result="effect7_dropShadow"/>
<feColorMatrix in="SourceAlpha" type="matrix" values="0 0 0 0 0 0 0 0 0 0 0 0 0 0 0 0 0 0 127 0"/>
<feOffset dy="4"/>
<feGaussianBlur stdDeviation="2"/>
<feColorMatrix type="matrix" values="0 0 0 0 0 0 0 0 0 0 0 0 0 0 0 0 0 0 0.25 0"/>
<feBlend mode="normal" in2="effect7_dropShadow" result="effect8_dropShadow"/>
<feBlend mode="normal" in="SourceGraphic" in2="effect8_dropShadow" result="shape"/>
</filter>
</defs>
</svg>
