<svg id="Capa_1" enable-background="new 0 0 512 512" height="512" viewBox="0 0 512 512" width="512" xmlns="http://www.w3.org/2000/svg"><g><g><circle cx="226.845" cy="235.256" fill="#d3effb" r="219.349"/></g><g><path d="m344.324 49.997c21.583 33.963 34.09 74.259 34.09 117.48 0 121.143-98.206 219.349-219.349 219.349-43.221 0-83.517-12.508-117.48-34.09 38.911 61.232 107.336 101.869 185.259 101.869 121.143 0 219.349-98.206 219.349-219.349.001-77.923-40.636-146.348-101.869-185.259z" fill="#b1e4f9"/></g><path d="m387.248 74.852c-42.845-42.845-99.811-66.441-160.403-66.441s-117.558 23.596-160.403 66.441c-42.846 42.845-66.442 99.811-66.442 160.404s23.596 117.558 66.441 160.403 99.811 66.441 160.403 66.441c60.593 0 117.558-23.596 160.403-66.441s66.441-99.811 66.441-160.403c.001-60.593-23.595-117.559-66.44-160.404zm51.265 151.924h-73.905c-1.622-48.75-17.262-94.2-46.619-135.483 13.857-6.097 27.152-13.62 39.724-22.525 47.21 37.19 78.267 93.995 80.8 158.008zm-204.173-197.159c13.414 9.262 37.083 27.606 59.516 54.927-19.055 6.346-39.037 9.939-59.516 10.645zm69.74 43.646c-17.942-21.505-36.368-37.499-50.395-48.167 33.437 4.246 64.466 16.319 91.19 34.316-11.488 7.736-23.586 14.273-36.166 19.555-1.516-1.911-3.052-3.814-4.629-5.704zm-159.097 5.699c-12.581-5.282-24.684-11.814-36.173-19.549 26.725-17.998 57.755-30.072 91.194-34.318-14.027 10.669-32.453 26.662-50.395 48.167-1.576 1.89-3.111 3.792-4.626 5.7zm74.366-49.345v65.573c-20.472-.706-40.453-4.304-59.512-10.651 22.432-27.318 46.099-45.661 59.512-54.922zm0 80.57v116.589h-115.261c1.954-53.802 22.263-97.093 46.058-129.726 22.051 7.923 45.318 12.368 69.203 13.137zm0 131.58v116.538c-24.334.781-47.989 5.36-70.365 13.538-23.579-32.844-43.473-76.243-44.97-130.077h115.335zm0 131.535v67.591c-13.67-9.439-37.997-28.318-60.811-56.521 19.433-6.612 39.85-10.349 60.811-11.07zm-69.753 23.931c17.946 21.512 36.378 37.511 50.408 48.182-34.058-4.325-65.613-16.776-92.67-35.331 11.566-7.933 23.758-14.64 36.449-20.063 1.894 2.419 3.822 4.825 5.813 7.212zm160.141-7.267c12.751 5.435 25.005 12.155 36.62 20.117-27.098 18.583-58.708 31.042-92.826 35.35 14.046-10.725 32.547-26.829 50.558-48.457 1.934-2.321 3.807-4.661 5.648-7.01zm-75.397 50.873v-67.537c20.88.719 41.241 4.446 60.633 11.026-22.757 28.12-46.989 47.027-60.633 56.511zm0-82.534v-116.538h115.335c-1.507 53.71-21.488 97.132-45.137 130.03-22.34-8.146-45.946-12.712-70.198-13.492zm0-131.529v-116.589c23.894-.769 47.159-5.211 69.207-13.132 23.793 32.632 44.101 75.921 46.055 129.721zm-138.364-158.008c12.571 8.902 25.866 16.429 39.723 22.525-29.356 41.283-44.996 86.733-46.619 135.483h-73.904c2.533-64.014 33.591-120.819 80.8-158.008zm-80.875 172.999h73.916c1.246 48.886 16.555 94.475 45.598 135.903-13.953 6.23-27.327 13.915-39.965 23.005-46.941-37.589-77.6-94.697-79.549-158.908zm343.937 158.908c-12.682-9.117-26.107-16.83-40.116-23.071 29.137-41.511 44.496-87.08 45.75-135.838h73.917c-1.949 64.212-32.609 121.32-79.551 158.909z" fill="#90d8f9"/><g><g><path d="m509.073 410.173-127.139-127.139c-3.783-3.783-8.797-6.084-14.132-6.484l-77.983-5.856c-6.097-.458-11.172 4.617-10.715 10.715l5.856 77.983c.401 5.335 2.701 10.349 6.484 14.132l127.139 127.139c3.903 3.903 10.231 3.903 14.134 0l76.355-76.355c3.904-3.904 3.904-10.232.001-14.135zm-183.46-78.059c-8.47 0-15.336-6.866-15.336-15.336s6.866-15.336 15.336-15.336 15.336 6.866 15.336 15.336-6.866 15.336-15.336 15.336z" fill="#dd636e"/></g><g><g><path d="m509.073 410.173-127.139-127.139c-3.783-3.783-8.797-6.084-14.132-6.484l-35.143-2.639 126.181 127.523c8.73 8.73 8.73 22.883 0 31.613l-53.936 53.936 13.68 13.68c3.903 3.903 10.231 3.903 14.134 0l76.355-76.355c3.903-3.904 3.903-10.232 0-14.135z" fill="#d82e3d"/></g></g></g><g><path d="m315.074 322.536h-81.431c-28.59 0-54.145-19.169-62.146-46.616l-18.417-63.178c-6.148-21.091-25.785-35.821-47.754-35.821-4.14 0-7.496-3.356-7.496-7.496s3.356-7.496 7.496-7.496c28.589 0 54.145 19.169 62.146 46.616l18.417 63.178c6.148 21.091 25.786 35.821 47.754 35.821h81.431c4.14 0 7.496 3.356 7.496 7.496-.001 4.14-3.356 7.496-7.496 7.496z" fill="#a71f29"/></g><g><g><path d="m161.396 79.249c0 23.62-32.529 71.808-48.104 93.526-3.991 5.565-12.258 5.565-16.248 0-15.575-21.718-48.104-69.907-48.104-93.526 0-31.054 25.174-56.228 56.228-56.228s56.228 25.174 56.228 56.228z" fill="#5766cb"/></g><g><path d="m105.168 23.021c-4.125 0-8.141.457-12.013 1.3 25.279 5.504 44.215 27.999 44.215 54.928 0 21.8-27.7 64.511-44.215 88.041 1.379 1.964 2.689 3.812 3.889 5.485 3.991 5.565 12.258 5.565 16.248 0 15.574-21.718 48.104-69.906 48.104-93.526 0-31.054-25.174-56.228-56.228-56.228z" fill="#3d4fc3"/></g><g><circle cx="105.168" cy="78.332" fill="#d3effb" r="16.673"/></g></g></g></svg>