<svg width="108" height="108" viewBox="0 0 108 108" fill="none" xmlns="http://www.w3.org/2000/svg">
<g filter="url(#filter0_ddd)">
<rect x="4" width="100" height="100" rx="20" fill="#96A7B1"/>
</g>
<path d="M54.7989 36.3702L49.2105 35.2715C49.2105 35.2715 45.437 43.9214 42.7262 42.0402C40.4784 40.5104 42.5639 37.8636 42.5639 37.8636C42.5639 37.8636 46.3046 30.7161 47.2134 30.554C48.5259 30.1403 55.0569 31.1907 55.0569 31.1907L54.7989 36.3702Z" fill="#FF9800"/>
<ellipse cx="60.145" cy="25.6988" rx="5.5283" ry="5.69876" fill="#FF9800"/>
<path d="M55.9987 43.7448C55.9987 43.7448 61.6685 46.2865 61.9877 46.5942C63.9457 48.1376 62.3332 49.7998 62.3332 49.7998C60.9512 51.3432 50.4704 53.4802 50.4704 53.4802L55.9987 43.7448Z" fill="#00796B"/>
<path d="M52.266 33.4786C52.998 31.8458 54.1344 30.9206 55.8604 31.3532V31.3532C58.7571 32.0792 60.6521 35.5144 59.2705 38.1762L52.8344 50.5766C52.4874 51.2451 52.0953 51.8829 51.6562 52.4916C50.1614 54.5635 46.4061 59.7661 43.4404 63.8527C42.7433 64.8132 41.4063 65.0008 40.4548 64.2742V64.2742C39.6454 63.6562 39.3594 62.5534 39.7677 61.6246L45.7484 48.0189L52.266 33.4786Z" fill="#009688"/>
<path d="M58.1871 33.1794C59.1085 33.1784 63.2547 35.9101 63.2547 35.9101C63.2547 35.9101 69.3589 28.7866 71.432 31.3986C73.1596 33.5356 70.3954 35.4352 70.3954 35.4352C70.3954 35.4352 64.752 41.134 63.8306 41.0152C62.4485 41.0153 56.4595 38.0471 56.4595 38.0471C54.9623 37.3337 55.0774 32.941 58.1871 33.1794Z" fill="#FF9800"/>
<path d="M19.9929 73.408C20.8409 73.408 21.4595 73.5707 21.8489 73.896C22.2382 74.2213 22.4329 74.7227 22.4329 75.4C22.4329 76.0773 22.2329 76.5733 21.8329 76.888C21.4382 77.2027 20.8302 77.36 20.0089 77.36H19.0169V79H18.0729V73.408H19.9929ZM20.1129 76.504C20.6355 76.504 20.9902 76.4053 21.1769 76.208C21.3689 76.0053 21.4649 75.712 21.4649 75.328C21.4649 74.9387 21.3449 74.664 21.1049 74.504C20.8649 74.344 20.4889 74.264 19.9769 74.264H19.0169V76.504H20.1129ZM24.3096 79H23.4136V73.064H24.3096V79ZM29.0569 79H28.2409V78.432C27.8889 78.8533 27.4169 79.064 26.8249 79.064C26.3823 79.064 26.0143 78.9387 25.7209 78.688C25.4329 78.4373 25.2889 78.104 25.2889 77.688C25.2889 77.2667 25.4436 76.952 25.7529 76.744C26.0623 76.536 26.4809 76.432 27.0089 76.432H28.1689V76.272C28.1689 75.7067 27.8543 75.424 27.2249 75.424C26.8303 75.424 26.4196 75.568 25.9929 75.856L25.5929 75.296C26.1103 74.8853 26.6969 74.68 27.3529 74.68C27.8543 74.68 28.2623 74.808 28.5769 75.064C28.8969 75.3147 29.0569 75.712 29.0569 76.256V79ZM28.1609 77.416V77.056H27.1529C26.5076 77.056 26.1849 77.2587 26.1849 77.664C26.1849 77.872 26.2649 78.032 26.4249 78.144C26.5849 78.2507 26.8063 78.304 27.0889 78.304C27.3769 78.304 27.6276 78.224 27.8409 78.064C28.0543 77.904 28.1609 77.688 28.1609 77.416ZM30.1683 75.528V74.76H33.4963V75.568L31.1043 78.224H33.6243V79H30.0083V78.128L32.3363 75.528H30.1683ZM38.0804 79H37.2644V78.432C36.9124 78.8533 36.4404 79.064 35.8484 79.064C35.4057 79.064 35.0377 78.9387 34.7444 78.688C34.4564 78.4373 34.3124 78.104 34.3124 77.688C34.3124 77.2667 34.467 76.952 34.7764 76.744C35.0857 76.536 35.5044 76.432 36.0324 76.432H37.1924V76.272C37.1924 75.7067 36.8777 75.424 36.2484 75.424C35.8537 75.424 35.443 75.568 35.0164 75.856L34.6164 75.296C35.1337 74.8853 35.7204 74.68 36.3764 74.68C36.8777 74.68 37.2857 74.808 37.6004 75.064C37.9204 75.3147 38.0804 75.712 38.0804 76.256V79ZM37.1844 77.416V77.056H36.1764C35.531 77.056 35.2084 77.2587 35.2084 77.664C35.2084 77.872 35.2884 78.032 35.4484 78.144C35.6084 78.2507 35.8297 78.304 36.1124 78.304C36.4004 78.304 36.651 78.224 36.8644 78.064C37.0777 77.904 37.1844 77.688 37.1844 77.416ZM43.259 79.064C42.7203 79.064 42.251 78.8613 41.851 78.456C41.451 78.0507 41.251 77.5173 41.251 76.856C41.251 76.1947 41.4563 75.6667 41.867 75.272C42.2777 74.8773 42.7657 74.68 43.331 74.68C43.9017 74.68 44.3603 74.92 44.707 75.4V73.064H45.603V79H44.707V78.36C44.3763 78.8293 43.8937 79.064 43.259 79.064ZM42.147 76.896C42.147 77.3013 42.2777 77.632 42.539 77.888C42.8003 78.144 43.107 78.272 43.459 78.272C43.811 78.272 44.1097 78.144 44.355 77.888C44.6003 77.6267 44.723 77.2933 44.723 76.888C44.723 76.4827 44.6003 76.144 44.355 75.872C44.1097 75.6 43.8083 75.464 43.451 75.464C43.0937 75.464 42.787 75.6 42.531 75.872C42.275 76.144 42.147 76.4853 42.147 76.896ZM50.858 77.264H47.522C47.5433 77.5733 47.6847 77.824 47.946 78.016C48.2073 78.2027 48.506 78.296 48.842 78.296C49.3753 78.296 49.7807 78.128 50.058 77.792L50.57 78.352C50.1113 78.8267 49.514 79.064 48.778 79.064C48.1807 79.064 47.6713 78.8667 47.25 78.472C46.834 78.072 46.626 77.5387 46.626 76.872C46.626 76.2 46.8393 75.6667 47.266 75.272C47.6927 74.8773 48.194 74.68 48.77 74.68C49.3513 74.68 49.8447 74.856 50.25 75.208C50.6553 75.5547 50.858 76.0347 50.858 76.648V77.264ZM47.522 76.56H49.962C49.962 76.2027 49.85 75.928 49.626 75.736C49.402 75.544 49.1247 75.448 48.794 75.448C48.4687 75.448 48.1753 75.5493 47.914 75.752C47.6527 75.9493 47.522 76.2187 47.522 76.56ZM56.0866 73.408C57.0893 73.408 57.86 73.6533 58.3986 74.144C58.9373 74.6293 59.2066 75.3067 59.2066 76.176C59.2066 77.0453 58.9453 77.7333 58.4226 78.24C57.9 78.7467 57.1 79 56.0226 79H54.1666V73.408H56.0866ZM58.2546 76.2C58.2546 74.92 57.5213 74.28 56.0546 74.28H55.1106V78.112H56.1586C56.836 78.112 57.3533 77.952 57.7106 77.632C58.0733 77.3067 58.2546 76.8293 58.2546 76.2ZM64.2564 77.264H60.9204C60.9418 77.5733 61.0831 77.824 61.3444 78.016C61.6058 78.2027 61.9044 78.296 62.2404 78.296C62.7738 78.296 63.1791 78.128 63.4564 77.792L63.9684 78.352C63.5098 78.8267 62.9124 79.064 62.1764 79.064C61.5791 79.064 61.0698 78.8667 60.6484 78.472C60.2324 78.072 60.0244 77.5387 60.0244 76.872C60.0244 76.2 60.2378 75.6667 60.6644 75.272C61.0911 74.8773 61.5924 74.68 62.1684 74.68C62.7498 74.68 63.2431 74.856 63.6484 75.208C64.0538 75.5547 64.2564 76.0347 64.2564 76.648V77.264ZM60.9204 76.56H63.3604C63.3604 76.2027 63.2484 75.928 63.0244 75.736C62.8004 75.544 62.5231 75.448 62.1924 75.448C61.8671 75.448 61.5738 75.5493 61.3124 75.752C61.0511 75.9493 60.9204 76.2187 60.9204 76.56ZM67.5218 74.68C68.0924 74.68 68.5804 74.8773 68.9858 75.272C69.3911 75.6667 69.5938 76.192 69.5938 76.848C69.5938 77.504 69.3911 78.0373 68.9858 78.448C68.5858 78.8587 68.1164 79.064 67.5778 79.064C67.0444 79.064 66.5644 78.8293 66.1378 78.36V80.552H65.2418V74.744H66.1378V75.488C66.4898 74.9493 66.9511 74.68 67.5218 74.68ZM66.1218 76.88C66.1218 77.2853 66.2444 77.6187 66.4898 77.88C66.7351 78.136 67.0338 78.264 67.3858 78.264C67.7378 78.264 68.0444 78.136 68.3058 77.88C68.5671 77.624 68.6978 77.2933 68.6978 76.888C68.6978 76.4773 68.5698 76.1387 68.3138 75.872C68.0578 75.6 67.7511 75.464 67.3938 75.464C67.0364 75.464 66.7351 75.6 66.4898 75.872C66.2444 76.1387 66.1218 76.4747 66.1218 76.88ZM71.6088 77.88C71.8648 78.136 72.1874 78.264 72.5768 78.264C72.9661 78.264 73.2861 78.136 73.5368 77.88C73.7928 77.6187 73.9208 77.2827 73.9208 76.872C73.9208 76.4613 73.7928 76.128 73.5368 75.872C73.2861 75.6107 72.9661 75.48 72.5768 75.48C72.1874 75.48 71.8648 75.6107 71.6088 75.872C71.3581 76.128 71.2328 76.4613 71.2328 76.872C71.2328 77.2827 71.3581 77.6187 71.6088 77.88ZM74.1768 78.432C73.7501 78.8533 73.2168 79.064 72.5768 79.064C71.9368 79.064 71.4034 78.8533 70.9768 78.432C70.5501 78.0053 70.3368 77.4853 70.3368 76.872C70.3368 76.2587 70.5501 75.7413 70.9768 75.32C71.4034 74.8933 71.9368 74.68 72.5768 74.68C73.2168 74.68 73.7501 74.8933 74.1768 75.32C74.6034 75.7413 74.8168 76.2587 74.8168 76.872C74.8168 77.4853 74.6034 78.0053 74.1768 78.432ZM78.0675 75.584C77.6248 75.584 77.2915 75.728 77.0675 76.016C76.8435 76.304 76.7315 76.6907 76.7315 77.176V79H75.8355V74.744H76.7315V75.6C76.8755 75.3333 77.0702 75.1147 77.3155 74.944C77.5662 74.7733 77.8302 74.6853 78.1075 74.68L78.1155 75.584C78.0995 75.584 78.0835 75.584 78.0675 75.584ZM80.1192 75.464V77.624C80.1192 77.8267 80.1725 77.9893 80.2792 78.112C80.3859 78.2293 80.5352 78.288 80.7272 78.288C80.9192 78.288 81.1032 78.1947 81.2792 78.008L81.6472 78.64C81.3325 78.9227 80.9832 79.064 80.5992 79.064C80.2205 79.064 79.8952 78.9333 79.6232 78.672C79.3565 78.4053 79.2232 78.048 79.2232 77.6V75.464H78.6872V74.744H79.2232V73.408H80.1192V74.744H81.2392V75.464H80.1192ZM86.3189 77.264H82.9829C83.0043 77.5733 83.1456 77.824 83.4069 78.016C83.6683 78.2027 83.9669 78.296 84.3029 78.296C84.8363 78.296 85.2416 78.128 85.5189 77.792L86.0309 78.352C85.5723 78.8267 84.9749 79.064 84.2389 79.064C83.6416 79.064 83.1323 78.8667 82.7109 78.472C82.2949 78.072 82.0869 77.5387 82.0869 76.872C82.0869 76.2 82.3003 75.6667 82.7269 75.272C83.1536 74.8773 83.6549 74.68 84.2309 74.68C84.8123 74.68 85.3056 74.856 85.7109 75.208C86.1163 75.5547 86.3189 76.0347 86.3189 76.648V77.264ZM82.9829 76.56H85.4229C85.4229 76.2027 85.3109 75.928 85.0869 75.736C84.8629 75.544 84.5856 75.448 84.2549 75.448C83.9296 75.448 83.6363 75.5493 83.3749 75.752C83.1136 75.9493 82.9829 76.2187 82.9829 76.56ZM90.3363 77.728C90.3363 78.1333 90.1896 78.4587 89.8963 78.704C89.6029 78.944 89.2269 79.064 88.7682 79.064C88.4589 79.064 88.1363 79.008 87.8003 78.896C87.4696 78.784 87.1763 78.6267 86.9202 78.424L87.3523 77.728C87.8483 78.1013 88.3283 78.288 88.7923 78.288C88.9949 78.288 89.1549 78.2427 89.2723 78.152C89.3896 78.056 89.4483 77.936 89.4483 77.792C89.4483 77.5787 89.1656 77.3867 88.6003 77.216C88.5576 77.2 88.5256 77.1893 88.5043 77.184C87.6189 76.944 87.1763 76.544 87.1763 75.984C87.1763 75.5893 87.3283 75.2747 87.6323 75.04C87.9416 74.8 88.3416 74.68 88.8323 74.68C89.3229 74.68 89.7869 74.824 90.2243 75.112L89.8883 75.776C89.5416 75.5467 89.1656 75.432 88.7603 75.432C88.5469 75.432 88.3736 75.472 88.2403 75.552C88.1069 75.6267 88.0403 75.7413 88.0403 75.896C88.0403 76.0347 88.1096 76.136 88.2483 76.2C88.3443 76.248 88.4776 76.2933 88.6483 76.336C88.8243 76.3787 88.9789 76.4213 89.1123 76.464C89.2456 76.5067 89.3736 76.5547 89.4963 76.608C89.6243 76.6613 89.7603 76.736 89.9043 76.832C90.1923 77.024 90.3363 77.3227 90.3363 77.728Z" fill="white"/>
<defs>
<filter id="filter0_ddd" x="0" y="0" width="108" height="108" filterUnits="userSpaceOnUse" color-interpolation-filters="sRGB">
<feFlood flood-opacity="0" result="BackgroundImageFix"/>
<feColorMatrix in="SourceAlpha" type="matrix" values="0 0 0 0 0 0 0 0 0 0 0 0 0 0 0 0 0 0 127 0"/>
<feOffset dy="4"/>
<feGaussianBlur stdDeviation="2"/>
<feColorMatrix type="matrix" values="0 0 0 0 0 0 0 0 0 0 0 0 0 0 0 0 0 0 0.25 0"/>
<feBlend mode="normal" in2="BackgroundImageFix" result="effect1_dropShadow"/>
<feColorMatrix in="SourceAlpha" type="matrix" values="0 0 0 0 0 0 0 0 0 0 0 0 0 0 0 0 0 0 127 0"/>
<feOffset dy="4"/>
<feGaussianBlur stdDeviation="2"/>
<feColorMatrix type="matrix" values="0 0 0 0 0 0 0 0 0 0 0 0 0 0 0 0 0 0 0.25 0"/>
<feBlend mode="normal" in2="effect1_dropShadow" result="effect2_dropShadow"/>
<feColorMatrix in="SourceAlpha" type="matrix" values="0 0 0 0 0 0 0 0 0 0 0 0 0 0 0 0 0 0 127 0"/>
<feOffset dy="4"/>
<feGaussianBlur stdDeviation="2"/>
<feColorMatrix type="matrix" values="0 0 0 0 0 0 0 0 0 0 0 0 0 0 0 0 0 0 0.25 0"/>
<feBlend mode="normal" in2="effect2_dropShadow" result="effect3_dropShadow"/>
<feBlend mode="normal" in="SourceGraphic" in2="effect3_dropShadow" result="shape"/>
</filter>
</defs>
</svg>
