<svg width="108" height="108" viewBox="0 0 108 108" fill="none" xmlns="http://www.w3.org/2000/svg">
<g filter="url(#filter0_ddd)">
<rect x="4" width="100" height="100" rx="20" fill="#707D85"/>
</g>
<g filter="url(#filter1_d)">
<rect x="42.1168" y="21" width="0.810219" height="11.6667" fill="#545454"/>
<rect x="32.1241" y="24.6667" width="0.810219" height="11.6667" fill="#545454"/>
<rect x="75.3357" y="24.6667" width="0.810219" height="11.6667" fill="#545454"/>
<rect x="65.3431" y="21" width="0.810219" height="11.6667" fill="#545454"/>
<path d="M17 34.4268C21.1861 29.9137 45.4927 30.248 54.2701 30.4152C63.0474 30.4152 85.5985 29.4123 91 34.4268C90.3248 36.3333 83.438 59.6667 83.438 59.6667H24.9672C24.9672 59.6667 17.6752 36.6851 17 34.4268Z" fill="#492518"/>
<path d="M17.5402 36.0973C21.6805 31.893 45.4502 32.2605 54.1316 32.4162C62.813 32.4162 85.1094 31.4819 90.4518 36.1534L83.438 59.6667H24.292L17.5402 36.0973Z" fill="#795548"/>
<path d="M18.2126 38.4423C22.2613 34.6471 45.6371 34.9283 54.1262 35.0688C62.6152 35.0689 84.5795 34.1166 89.8036 38.3333L83.438 59.6667H24.292C24.292 59.6667 24.292 59.6667 18.2126 38.4423Z" fill="#DFDFDF"/>
<path d="M24.292 59.6667H83.438L91 65H17L24.292 59.6667Z" fill="#999999"/>
<path d="M35.635 59.6665H36.1752L32.6642 64.9999H32.1241L35.635 59.6665Z" fill="#424242"/>
<path d="M71.8248 59.6665H72.365L75.8759 64.9999H75.3358L71.8248 59.6665Z" fill="#424242"/>
<path d="M75.0657 54.3334C76.146 53.0001 77.2263 54.3334 77.2263 54.3334L73.7153 59.6667H73.1752C73.1752 59.6667 73.9854 55.6667 75.0657 54.3334Z" fill="#424242"/>
<path d="M33.3394 54.3334C32.2591 53.0001 31.3139 54.3334 31.3139 54.3334L34.4197 59.6667H34.9599C34.9599 59.6667 34.4197 55.6667 33.3394 54.3334Z" fill="#424242"/>
<path d="M50.2189 52.4551C50.2189 52.4551 54 49.9311 57.781 52.4551V59.6667H50.2189V52.4551Z" fill="#424242"/>
<path d="M63.9927 55.6282C63.9927 55.6282 65.7482 54.2147 67.5037 55.6282V59.6667H63.9927V55.6282Z" fill="#424242"/>
<path d="M40.4964 55.6282C40.4964 55.6282 42.2518 54.2147 44.0073 55.6282V59.6667H40.4964V55.6282Z" fill="#424242"/>
<path d="M48.3285 39.8974C48.3285 39.8974 49.8139 37.8782 51.2993 39.8974V45.6667H48.3285V39.8974Z" fill="#424242"/>
<path d="M31.0439 39.8974C31.0439 39.8974 32.5293 37.8782 34.0147 39.8974V45.6667H31.0439V39.8974Z" fill="#424242"/>
<path d="M39.6861 39.8974C39.6861 39.8974 41.1715 37.8782 42.6569 39.8974V45.6667H39.6861V39.8974Z" fill="#424242"/>
<path d="M56.9708 39.8974C56.9708 39.8974 58.4562 37.8782 59.9416 39.8974V45.6667H56.9708V39.8974Z" fill="#424242"/>
<path d="M65.6132 39.8974C65.6132 39.8974 67.0986 37.8782 68.584 39.8974V45.6667H65.6132V39.8974Z" fill="#424242"/>
<path d="M74.2555 39.8974C74.2555 39.8974 75.7409 37.8782 77.2263 39.8974V45.6667H74.2555V39.8974Z" fill="#424242"/>
<path d="M36.446 22C40.3841 21.804 39.754 23.0586 42.1168 22.6667V27.3111C39.4389 27.5071 39.9107 26.1767 36.4453 26.6667C36.4453 26.6667 36.5803 25 37.7956 24.3333C37.7956 23.0594 36.446 22 36.446 22Z" fill="#1981D5"/>
<path d="M37.1016 22.6666C40.821 22.6509 39.2661 23.4282 42.1168 23.2728L42.1168 26.8333C39.553 26.9932 39.7375 25.6666 36.5344 26.1666C36.6127 25.6666 36.9854 24.8333 37.7956 24.3333C37.6606 23.3333 37.1016 22.6666 37.1016 22.6666Z" fill="white"/>
<path d="M37.5012 23.3333C40.7421 23.3333 39.4018 24.0185 42.1168 23.9229V26.324C39.6751 26.4224 39.859 25.3333 36.6181 25.8333C36.8936 25 36.9854 24.8333 37.7956 24.3333C37.6606 23.8333 37.666 23.8333 37.5012 23.3333Z" fill="#DD2C00"/>
<path d="M28.0735 25.6811C30.8864 25.5461 30.4364 26.4101 32.1241 26.1401V29.3382C30.2113 29.4732 30.5483 28.5571 28.073 28.8945C28.073 28.8945 28.1694 27.7468 29.0375 27.2878C29.0375 26.4106 28.0735 25.6811 28.0735 25.6811Z" fill="#1981D5"/>
<path d="M28.5411 26.1401C31.1978 26.1293 30.0872 26.6646 32.1234 26.5575L32.1234 29.0092C30.2921 29.1193 30.4238 28.2059 28.1359 28.5502C28.1919 28.2059 28.4581 27.6321 29.0368 27.2878C28.9404 26.5992 28.5411 26.1401 28.5411 26.1401Z" fill="white"/>
<path d="M28.8272 26.5992C31.1422 26.5992 30.1848 27.071 32.1241 27.0051V28.6585C30.38 28.7262 30.5113 27.9763 28.1964 28.3206C28.3932 27.7468 28.4588 27.6321 29.0375 27.2878C28.9411 26.9435 28.9449 26.9435 28.8272 26.5992Z" fill="#DD2C00"/>
<path d="M71.2852 25.3477C74.0981 25.2128 73.648 26.0767 75.3358 25.8068V29.0049C73.423 29.1398 73.76 28.2237 71.2847 28.5611C71.2847 28.5611 71.3811 27.4135 72.2492 26.9544C72.2492 26.0772 71.2852 25.3477 71.2852 25.3477Z" fill="#1981D5"/>
<path d="M71.7527 25.8068C74.4095 25.796 73.2988 26.3312 75.335 26.2242L75.335 28.6759C73.5038 28.786 73.6355 27.8725 71.3476 28.2168C71.4035 27.8725 71.6698 27.2987 72.2485 26.9544C72.152 26.2658 71.7527 25.8068 71.7527 25.8068Z" fill="white"/>
<path d="M72.0389 26.2658C74.3538 26.2658 73.3965 26.7376 75.3357 26.6718V28.3251C73.5917 28.3929 73.723 27.643 71.4081 27.9873C71.6049 27.4135 71.6705 27.2987 72.2492 26.9544C72.1527 26.6101 72.1566 26.6101 72.0389 26.2658Z" fill="#DD2C00"/>
<path d="M59.6724 22.0209C63.6104 21.8249 62.9803 23.0796 65.3431 22.6876V27.332C62.6652 27.528 63.137 26.1976 59.6716 26.6876C59.6716 26.6876 59.8066 25.0209 61.0219 24.3543C61.0219 23.0803 59.6724 22.0209 59.6724 22.0209Z" fill="#1981D5"/>
<path d="M60.3278 22.6876C64.0473 22.6718 62.4924 23.4492 65.3431 23.2938L65.3431 26.8542C62.7793 27.0142 62.9637 25.6876 59.7607 26.1876C59.839 25.6876 60.2117 24.8542 61.0219 24.3542C60.8869 23.3542 60.3278 22.6876 60.3278 22.6876Z" fill="white"/>
<path d="M60.7275 23.3543C63.9684 23.3543 62.6281 24.0394 65.3431 23.9438V26.3449C62.9014 26.4433 63.0853 25.3543 59.8444 25.8543C60.1199 25.0209 60.2117 24.8543 61.0219 24.3543C60.8869 23.8543 60.8923 23.8543 60.7275 23.3543Z" fill="#DD2C00"/>
</g>
<path d="M35.7205 75.224C35.7205 76.1467 35.3178 76.728 34.5125 76.968L35.9765 79H34.7765L33.4405 77.12H32.2005V79H31.2565V73.408H33.3365C34.1898 73.408 34.8005 73.552 35.1685 73.84C35.5365 74.128 35.7205 74.5893 35.7205 75.224ZM33.3765 76.264C33.9098 76.264 34.2725 76.1813 34.4645 76.016C34.6565 75.8507 34.7525 75.5867 34.7525 75.224C34.7525 74.856 34.6538 74.6053 34.4565 74.472C34.2591 74.3333 33.9071 74.264 33.4005 74.264H32.2005V76.264H33.3765ZM40.9088 77.264H37.5728C37.5941 77.5733 37.7354 77.824 37.9968 78.016C38.2581 78.2027 38.5568 78.296 38.8928 78.296C39.4261 78.296 39.8314 78.128 40.1088 77.792L40.6208 78.352C40.1621 78.8267 39.5648 79.064 38.8288 79.064C38.2314 79.064 37.7221 78.8667 37.3008 78.472C36.8848 78.072 36.6768 77.5387 36.6768 76.872C36.6768 76.2 36.8901 75.6667 37.3168 75.272C37.7434 74.8773 38.2448 74.68 38.8208 74.68C39.4021 74.68 39.8954 74.856 40.3008 75.208C40.7061 75.5547 40.9088 76.0347 40.9088 76.648V77.264ZM37.5728 76.56H40.0128C40.0128 76.2027 39.9008 75.928 39.6768 75.736C39.4528 75.544 39.1754 75.448 38.8448 75.448C38.5194 75.448 38.2261 75.5493 37.9648 75.752C37.7034 75.9493 37.5728 76.2187 37.5728 76.56ZM43.6301 79.064C43.0914 79.064 42.6221 78.8613 42.2221 78.456C41.8221 78.0507 41.6221 77.5173 41.6221 76.856C41.6221 76.1947 41.8274 75.6667 42.2381 75.272C42.6488 74.8773 43.1368 74.68 43.7021 74.68C44.2728 74.68 44.7314 74.92 45.0781 75.4V73.064H45.9741V79H45.0781V78.36C44.7474 78.8293 44.2648 79.064 43.6301 79.064ZM42.5181 76.896C42.5181 77.3013 42.6488 77.632 42.9101 77.888C43.1714 78.144 43.4781 78.272 43.8301 78.272C44.1821 78.272 44.4808 78.144 44.7261 77.888C44.9714 77.6267 45.0941 77.2933 45.0941 76.888C45.0941 76.4827 44.9714 76.144 44.7261 75.872C44.4808 75.6 44.1794 75.464 43.8221 75.464C43.4648 75.464 43.1581 75.6 42.9021 75.872C42.6461 76.144 42.5181 76.4853 42.5181 76.896ZM48.2611 77.88C48.5171 78.136 48.8398 78.264 49.2291 78.264C49.6184 78.264 49.9384 78.136 50.1891 77.88C50.4451 77.6187 50.5731 77.2827 50.5731 76.872C50.5731 76.4613 50.4451 76.128 50.1891 75.872C49.9384 75.6107 49.6184 75.48 49.2291 75.48C48.8398 75.48 48.5171 75.6107 48.2611 75.872C48.0104 76.128 47.8851 76.4613 47.8851 76.872C47.8851 77.2827 48.0104 77.6187 48.2611 77.88ZM50.8291 78.432C50.4024 78.8533 49.8691 79.064 49.2291 79.064C48.5891 79.064 48.0558 78.8533 47.6291 78.432C47.2024 78.0053 46.9891 77.4853 46.9891 76.872C46.9891 76.2587 47.2024 75.7413 47.6291 75.32C48.0558 74.8933 48.5891 74.68 49.2291 74.68C49.8691 74.68 50.4024 74.8933 50.8291 75.32C51.2558 75.7413 51.4691 76.2587 51.4691 76.872C51.4691 77.4853 51.2558 78.0053 50.8291 78.432ZM53.3838 76.696V79H52.4878V74.744H53.3838V75.52C53.5278 75.2587 53.7252 75.0533 53.9758 74.904C54.2318 74.7547 54.5065 74.68 54.7998 74.68C55.2798 74.68 55.6665 74.8267 55.9598 75.12C56.2585 75.4133 56.4078 75.8373 56.4078 76.392V79H55.5118V76.664C55.5118 75.88 55.1865 75.488 54.5358 75.488C54.2265 75.488 53.9572 75.592 53.7278 75.8C53.4985 76.0027 53.3838 76.3013 53.3838 76.696ZM59.3957 79.064C58.8571 79.064 58.3877 78.8613 57.9877 78.456C57.5877 78.0507 57.3877 77.5173 57.3877 76.856C57.3877 76.1947 57.5931 75.6667 58.0037 75.272C58.4144 74.8773 58.9024 74.68 59.4677 74.68C60.0384 74.68 60.4971 74.92 60.8437 75.4V73.064H61.7397V79H60.8437V78.36C60.5131 78.8293 60.0304 79.064 59.3957 79.064ZM58.2837 76.896C58.2837 77.3013 58.4144 77.632 58.6757 77.888C58.9371 78.144 59.2437 78.272 59.5957 78.272C59.9477 78.272 60.2464 78.144 60.4917 77.888C60.7371 77.6267 60.8597 77.2933 60.8597 76.888C60.8597 76.4827 60.7371 76.144 60.4917 75.872C60.2464 75.6 59.9451 75.464 59.5877 75.464C59.2304 75.464 58.9237 75.6 58.6677 75.872C58.4117 76.144 58.2837 76.4853 58.2837 76.896ZM66.9947 77.264H63.6587C63.6801 77.5733 63.8214 77.824 64.0827 78.016C64.3441 78.2027 64.6427 78.296 64.9787 78.296C65.5121 78.296 65.9174 78.128 66.1947 77.792L66.7067 78.352C66.2481 78.8267 65.6507 79.064 64.9147 79.064C64.3174 79.064 63.8081 78.8667 63.3867 78.472C62.9707 78.072 62.7627 77.5387 62.7627 76.872C62.7627 76.2 62.9761 75.6667 63.4027 75.272C63.8294 74.8773 64.3307 74.68 64.9067 74.68C65.4881 74.68 65.9814 74.856 66.3867 75.208C66.7921 75.5547 66.9947 76.0347 66.9947 76.648V77.264ZM63.6587 76.56H66.0987C66.0987 76.2027 65.9867 75.928 65.7627 75.736C65.5387 75.544 65.2614 75.448 64.9307 75.448C64.6054 75.448 64.3121 75.5493 64.0507 75.752C63.7894 75.9493 63.6587 76.2187 63.6587 76.56ZM68.876 79H67.98V73.064H68.876V79ZM74.1353 77.264H70.7993C70.8207 77.5733 70.962 77.824 71.2233 78.016C71.4847 78.2027 71.7833 78.296 72.1193 78.296C72.6527 78.296 73.058 78.128 73.3353 77.792L73.8473 78.352C73.3887 78.8267 72.7913 79.064 72.0553 79.064C71.458 79.064 70.9487 78.8667 70.5273 78.472C70.1113 78.072 69.9033 77.5387 69.9033 76.872C69.9033 76.2 70.1167 75.6667 70.5433 75.272C70.97 74.8773 71.4713 74.68 72.0473 74.68C72.6287 74.68 73.122 74.856 73.5273 75.208C73.9327 75.5547 74.1353 76.0347 74.1353 76.648V77.264ZM70.7993 76.56H73.2393C73.2393 76.2027 73.1273 75.928 72.9033 75.736C72.6793 75.544 72.402 75.448 72.0713 75.448C71.746 75.448 71.4527 75.5493 71.1913 75.752C70.93 75.9493 70.7993 76.2187 70.7993 76.56ZM78.1527 77.728C78.1527 78.1333 78.006 78.4587 77.7127 78.704C77.4193 78.944 77.0433 79.064 76.5847 79.064C76.2753 79.064 75.9527 79.008 75.6167 78.896C75.286 78.784 74.9927 78.6267 74.7367 78.424L75.1687 77.728C75.6647 78.1013 76.1447 78.288 76.6087 78.288C76.8113 78.288 76.9713 78.2427 77.0887 78.152C77.206 78.056 77.2647 77.936 77.2647 77.792C77.2647 77.5787 76.982 77.3867 76.4167 77.216C76.374 77.2 76.342 77.1893 76.3207 77.184C75.4353 76.944 74.9927 76.544 74.9927 75.984C74.9927 75.5893 75.1447 75.2747 75.4487 75.04C75.758 74.8 76.158 74.68 76.6487 74.68C77.1393 74.68 77.6033 74.824 78.0407 75.112L77.7047 75.776C77.358 75.5467 76.982 75.432 76.5767 75.432C76.3633 75.432 76.19 75.472 76.0567 75.552C75.9233 75.6267 75.8567 75.7413 75.8567 75.896C75.8567 76.0347 75.926 76.136 76.0647 76.2C76.1607 76.248 76.294 76.2933 76.4647 76.336C76.6407 76.3787 76.7953 76.4213 76.9287 76.464C77.062 76.5067 77.19 76.5547 77.3127 76.608C77.4407 76.6613 77.5767 76.736 77.7207 76.832C78.0087 77.024 78.1527 77.3227 78.1527 77.728Z" fill="white"/>
<defs>
<filter id="filter0_ddd" x="0" y="0" width="108" height="108" filterUnits="userSpaceOnUse" color-interpolation-filters="sRGB">
<feFlood flood-opacity="0" result="BackgroundImageFix"/>
<feColorMatrix in="SourceAlpha" type="matrix" values="0 0 0 0 0 0 0 0 0 0 0 0 0 0 0 0 0 0 127 0"/>
<feOffset dy="4"/>
<feGaussianBlur stdDeviation="2"/>
<feColorMatrix type="matrix" values="0 0 0 0 0 0 0 0 0 0 0 0 0 0 0 0 0 0 0.25 0"/>
<feBlend mode="normal" in2="BackgroundImageFix" result="effect1_dropShadow"/>
<feColorMatrix in="SourceAlpha" type="matrix" values="0 0 0 0 0 0 0 0 0 0 0 0 0 0 0 0 0 0 127 0"/>
<feOffset dy="4"/>
<feGaussianBlur stdDeviation="2"/>
<feColorMatrix type="matrix" values="0 0 0 0 0 0 0 0 0 0 0 0 0 0 0 0 0 0 0.25 0"/>
<feBlend mode="normal" in2="effect1_dropShadow" result="effect2_dropShadow"/>
<feColorMatrix in="SourceAlpha" type="matrix" values="0 0 0 0 0 0 0 0 0 0 0 0 0 0 0 0 0 0 127 0"/>
<feOffset dy="4"/>
<feGaussianBlur stdDeviation="2"/>
<feColorMatrix type="matrix" values="0 0 0 0 0 0 0 0 0 0 0 0 0 0 0 0 0 0 0.25 0"/>
<feBlend mode="normal" in2="effect2_dropShadow" result="effect3_dropShadow"/>
<feBlend mode="normal" in="SourceGraphic" in2="effect3_dropShadow" result="shape"/>
</filter>
<filter id="filter1_d" x="13" y="21" width="82" height="52" filterUnits="userSpaceOnUse" color-interpolation-filters="sRGB">
<feFlood flood-opacity="0" result="BackgroundImageFix"/>
<feColorMatrix in="SourceAlpha" type="matrix" values="0 0 0 0 0 0 0 0 0 0 0 0 0 0 0 0 0 0 127 0"/>
<feOffset dy="4"/>
<feGaussianBlur stdDeviation="2"/>
<feColorMatrix type="matrix" values="0 0 0 0 0 0 0 0 0 0 0 0 0 0 0 0 0 0 0.25 0"/>
<feBlend mode="normal" in2="BackgroundImageFix" result="effect1_dropShadow"/>
<feBlend mode="normal" in="SourceGraphic" in2="effect1_dropShadow" result="shape"/>
</filter>
</defs>
</svg>
