<svg width="108" height="108" viewBox="0 0 108 108" fill="none" xmlns="http://www.w3.org/2000/svg">
<g filter="url(#filter0_ddd)">
<rect x="4" width="100" height="100" rx="20" fill="#A0BED6"/>
</g>
<g filter="url(#filter1_d)">
<path d="M34.8054 48.6667H42.0128V48.9748V51.4402L38.8281 52.9811H38.0739L34.8054 51.4402V48.9748V48.6667Z" fill="#F9B54C"/>
<path d="M34.8054 48.9748C34.6378 51.3632 38.1576 52.9811 38.1576 52.9811H38.6605C38.6605 52.9811 42.0128 51.4402 42.0128 48.9748C42.0128 48.9748 42.6832 49.4371 42.8508 50.2075C43.8565 52.2107 42.5156 58.1431 42.5156 58.1431C42.5156 58.1431 43.1022 61.456 39.5824 65H37.2358C37.2358 65 30.3636 59.9921 33.9673 57.5267C31.4531 55.3695 33.7997 50.978 33.9673 50.2075C34.1349 49.4371 34.8054 48.9748 34.8054 48.9748Z" fill="white"/>
<path d="M34.2188 56.0629C35.7273 53.4394 38.4091 53.2893 38.4091 53.2893C38.4091 53.2893 41.0909 53.4394 42.5994 56.0629L42.5156 60.2233L39.5824 65H37.2358L34.1349 60.2233L34.2188 56.0629Z" fill="#E6E9EE"/>
<path d="M37.571 53.4434C37.571 53.4434 38.0236 53.2893 38.4426 53.2893C38.8616 53.2893 39.2807 53.4434 39.2807 53.4434C39.6997 53.5975 39.8107 53.636 39.8107 53.636L39.2807 55.1384H37.571L37.0179 53.636L37.571 53.4434Z" fill="#F1543F"/>
<path d="M37.571 55.1384H39.2817L41.0071 62.6887L39.5824 65H37.2358L35.7273 62.6887L37.571 55.1384Z" fill="#FF7058"/>
<path d="M49.8068 53.5204C49.8068 53.5204 47.7116 51.8255 42.8508 50.2076C42.8508 50.2076 43.1023 53.4434 42.348 57.6808C41.5937 61.9182 39.5824 65 39.5824 65C43.1023 64.4607 46.3707 63.0739 46.3707 63.0739C46.3707 63.0739 49.2202 61.9182 51.8182 58.7594C51.8182 58.7594 51.4829 55.8318 49.8068 53.5204Z" fill="#324A5E"/>
<path d="M27.0114 53.5204C27.0114 53.5204 29.1065 51.8255 33.9673 50.2076C33.9673 50.2076 33.7159 53.4434 34.4702 57.6808C35.2244 61.9182 37.2358 65 37.2358 65C33.7159 64.4607 30.4474 63.0739 30.4474 63.0739C30.4474 63.0739 27.598 61.9182 25 58.7594C25 58.7594 25.3352 55.8318 27.0114 53.5204Z" fill="#324A5E"/>
<ellipse cx="38.3253" cy="44.1981" rx="5.02841" ry="6.4717" fill="#FFD05B"/>
<path d="M31.5498 38.7948C31.5498 38.7948 32.1365 35.4819 36.1592 36.4064C36.1592 36.4064 41.5229 34.6344 43.7018 38.7948C43.7018 38.7948 46.4675 43.4174 42.3609 48.0401C42.3609 48.0401 44.2046 43.4174 41.2714 42.3388C38.1705 42.0306 36.7459 40.875 36.7459 40.875C36.7459 40.875 36.7459 41.7995 37.9192 42.3388C35.6563 42.5699 33.8964 41.2602 33.8964 41.2602C33.8964 41.2602 32.7231 44.1879 34.2317 48.0401C30.0413 44.496 31.5498 38.7948 31.5498 38.7948Z" fill="#29364A"/>
<path d="M67.5739 50.0535H74.6137V54.8302H67.5739V50.0535Z" fill="#F9B54C"/>
<path d="M66.5682 52.2107C66.9034 51.1321 67.5739 50.978 67.5739 50.978C67.5739 50.978 67.5739 52.5189 71.0938 54.8302C74.6136 52.5189 74.6136 50.978 74.6136 50.978C74.6136 50.978 75.2841 51.1321 75.6193 52.2107L75.9545 55.0613L75.6193 57.7579H66.5682L66.233 54.9072L66.5682 52.2107Z" fill="white"/>
<path d="M59.696 55.2925C59.696 55.2925 62.2102 53.7516 66.5682 52.2107C66.3168 54.3679 67.071 57.7579 67.071 57.7579C68.1605 55.2154 72.5185 53.1352 75.1165 57.7579C75.1165 57.7579 75.8707 54.3679 75.6193 52.2107C80.4801 53.9057 82.6591 55.2925 82.6591 55.2925C82.6591 55.2925 83.6648 56.9874 84 59.2987C70.2557 70.239 58.1875 59.2987 58.1875 59.2987C58.2713 57.7579 59.696 55.2925 59.696 55.2925Z" fill="#FF7058"/>
<ellipse cx="71.0938" cy="45.739" rx="5.02841" ry="6.4717" fill="#FFD05B"/>
<path d="M67.5739 47.5113C67.5739 48.2345 67.2537 48.8208 66.652 48.8208C66.0503 48.8208 65.2273 48.0031 65.2273 47.2799C65.2273 46.1242 65.6463 46.2013 66.0653 46.2013C66.6671 46.2013 67.5739 46.7881 67.5739 47.5113Z" fill="#FFD05B"/>
<path d="M74.6136 47.5118C74.6136 48.2347 74.9338 48.8208 75.5355 48.8208C76.1372 48.8208 76.9602 48.0034 76.9602 47.2805C76.9602 46.1253 76.5412 46.2023 76.1222 46.2023C75.5205 46.2023 74.6136 46.7889 74.6136 47.5118Z" fill="#FFD05B"/>
<path d="M66.7261 39.9817C67.0613 39.2883 71.1679 36.6688 75.023 39.9817C75.023 39.9817 77.4534 41.8307 76.3639 46.2223H75.8611C75.442 43.6028 73.6821 44.9896 72.7602 41.8308C69.9108 44.6814 67.8994 43.3716 66.1395 46.2223H65.6367C64.7148 41.5996 66.7261 39.9817 66.7261 39.9817Z" fill="#324A5E"/>
<ellipse cx="71.0938" cy="38.3428" rx="3.18466" ry="2.15723" fill="#324A5E"/>
<rect x="47.4602" y="18.3113" width="20.1136" height="12.9434" rx="5" fill="#E6E9EE"/>
<rect x="42.7671" y="16" width="20.1136" height="12.9434" rx="5" fill="white"/>
<path d="M43.7727 34.4906L51.1477 28.4811L46.2031 28.173L43.7727 34.4906Z" fill="white"/>
<path d="M66.5682 36.1855L59.1932 30.1761L64.1378 29.8679L66.5682 36.1855Z" fill="#E6E9EE"/>
</g>
<path d="M19.9523 74.144C19.6803 74.144 19.4563 74.2 19.2803 74.312C19.1043 74.424 19.0163 74.5947 19.0163 74.824C19.0163 75.048 19.1043 75.2213 19.2803 75.344C19.4563 75.4613 19.8296 75.5893 20.4003 75.728C20.9763 75.8667 21.4083 76.0613 21.6963 76.312C21.9896 76.5627 22.1363 76.9333 22.1363 77.424C22.1363 77.9093 21.9523 78.304 21.5843 78.608C21.2163 78.912 20.7336 79.064 20.1363 79.064C19.2616 79.064 18.4856 78.7627 17.8083 78.16L18.4003 77.448C18.9656 77.9387 19.5523 78.184 20.1603 78.184C20.4643 78.184 20.7043 78.12 20.8803 77.992C21.0616 77.8587 21.1523 77.6853 21.1523 77.472C21.1523 77.2533 21.0669 77.0853 20.8963 76.968C20.7309 76.8453 20.4429 76.736 20.0323 76.64C19.6216 76.5387 19.3096 76.448 19.0963 76.368C18.8829 76.2827 18.6936 76.1733 18.5283 76.04C18.1976 75.7893 18.0323 75.4053 18.0323 74.888C18.0323 74.3707 18.2189 73.9733 18.5923 73.696C18.9709 73.4133 19.4376 73.272 19.9923 73.272C20.3496 73.272 20.7043 73.3307 21.0563 73.448C21.4083 73.5653 21.7123 73.7307 21.9683 73.944L21.4643 74.656C21.2989 74.5067 21.0749 74.384 20.7923 74.288C20.5096 74.192 20.2296 74.144 19.9523 74.144ZM26.6233 79H25.8073V78.432C25.4553 78.8533 24.9833 79.064 24.3913 79.064C23.9487 79.064 23.5807 78.9387 23.2873 78.688C22.9993 78.4373 22.8553 78.104 22.8553 77.688C22.8553 77.2667 23.01 76.952 23.3193 76.744C23.6287 76.536 24.0473 76.432 24.5753 76.432H25.7353V76.272C25.7353 75.7067 25.4207 75.424 24.7913 75.424C24.3967 75.424 23.986 75.568 23.5593 75.856L23.1593 75.296C23.6767 74.8853 24.2633 74.68 24.9193 74.68C25.4207 74.68 25.8287 74.808 26.1433 75.064C26.4633 75.3147 26.6233 75.712 26.6233 76.256V79ZM25.7273 77.416V77.056H24.7193C24.074 77.056 23.7513 77.2587 23.7513 77.664C23.7513 77.872 23.8313 78.032 23.9913 78.144C24.1513 78.2507 24.3727 78.304 24.6553 78.304C24.9433 78.304 25.194 78.224 25.4073 78.064C25.6207 77.904 25.7273 77.688 25.7273 77.416ZM28.7667 79H27.8707V73.064H28.7667V79ZM33.514 79H32.698V78.432C32.346 78.8533 31.874 79.064 31.282 79.064C30.8393 79.064 30.4713 78.9387 30.178 78.688C29.89 78.4373 29.746 78.104 29.746 77.688C29.746 77.2667 29.9006 76.952 30.21 76.744C30.5193 76.536 30.938 76.432 31.466 76.432H32.626V76.272C32.626 75.7067 32.3113 75.424 31.682 75.424C31.2873 75.424 30.8766 75.568 30.45 75.856L30.05 75.296C30.5673 74.8853 31.154 74.68 31.81 74.68C32.3113 74.68 32.7193 74.808 33.034 75.064C33.354 75.3147 33.514 75.712 33.514 76.256V79ZM32.618 77.416V77.056H31.61C30.9646 77.056 30.642 77.2587 30.642 77.664C30.642 77.872 30.722 78.032 30.882 78.144C31.042 78.2507 31.2633 78.304 31.546 78.304C31.834 78.304 32.0846 78.224 32.298 78.064C32.5113 77.904 32.618 77.688 32.618 77.416ZM38.6926 79.064C38.1539 79.064 37.6846 78.8613 37.2846 78.456C36.8846 78.0507 36.6846 77.5173 36.6846 76.856C36.6846 76.1947 36.8899 75.6667 37.3006 75.272C37.7113 74.8773 38.1993 74.68 38.7646 74.68C39.3353 74.68 39.7939 74.92 40.1406 75.4V73.064H41.0366V79H40.1406V78.36C39.8099 78.8293 39.3273 79.064 38.6926 79.064ZM37.5806 76.896C37.5806 77.3013 37.7113 77.632 37.9726 77.888C38.2339 78.144 38.5406 78.272 38.8926 78.272C39.2446 78.272 39.5433 78.144 39.7886 77.888C40.0339 77.6267 40.1566 77.2933 40.1566 76.888C40.1566 76.4827 40.0339 76.144 39.7886 75.872C39.5433 75.6 39.2419 75.464 38.8846 75.464C38.5273 75.464 38.2206 75.6 37.9646 75.872C37.7086 76.144 37.5806 76.4853 37.5806 76.896ZM46.2916 77.264H42.9556C42.9769 77.5733 43.1183 77.824 43.3796 78.016C43.6409 78.2027 43.9396 78.296 44.2756 78.296C44.8089 78.296 45.2143 78.128 45.4916 77.792L46.0036 78.352C45.5449 78.8267 44.9476 79.064 44.2116 79.064C43.6143 79.064 43.1049 78.8667 42.6836 78.472C42.2676 78.072 42.0596 77.5387 42.0596 76.872C42.0596 76.2 42.2729 75.6667 42.6996 75.272C43.1263 74.8773 43.6276 74.68 44.2036 74.68C44.7849 74.68 45.2783 74.856 45.6836 75.208C46.0889 75.5547 46.2916 76.0347 46.2916 76.648V77.264ZM42.9556 76.56H45.3956C45.3956 76.2027 45.2836 75.928 45.0596 75.736C44.8356 75.544 44.5583 75.448 44.2276 75.448C43.9023 75.448 43.6089 75.5493 43.3476 75.752C43.0863 75.9493 42.9556 76.2187 42.9556 76.56ZM54.0642 75.224C54.0642 76.1467 53.6616 76.728 52.8562 76.968L54.3202 79H53.1202L51.7842 77.12H50.5442V79H49.6002V73.408H51.6802C52.5336 73.408 53.1442 73.552 53.5122 73.84C53.8802 74.128 54.0642 74.5893 54.0642 75.224ZM51.7202 76.264C52.2536 76.264 52.6162 76.1813 52.8082 76.016C53.0002 75.8507 53.0962 75.5867 53.0962 75.224C53.0962 74.856 52.9976 74.6053 52.8002 74.472C52.6029 74.3333 52.2509 74.264 51.7442 74.264H50.5442V76.264H51.7202ZM59.2525 77.264H55.9165C55.9379 77.5733 56.0792 77.824 56.3405 78.016C56.6019 78.2027 56.9005 78.296 57.2365 78.296C57.7699 78.296 58.1752 78.128 58.4525 77.792L58.9645 78.352C58.5059 78.8267 57.9085 79.064 57.1725 79.064C56.5752 79.064 56.0659 78.8667 55.6445 78.472C55.2285 78.072 55.0205 77.5387 55.0205 76.872C55.0205 76.2 55.2339 75.6667 55.6605 75.272C56.0872 74.8773 56.5885 74.68 57.1645 74.68C57.7459 74.68 58.2392 74.856 58.6445 75.208C59.0499 75.5547 59.2525 76.0347 59.2525 76.648V77.264ZM55.9165 76.56H58.3565C58.3565 76.2027 58.2445 75.928 58.0205 75.736C57.7965 75.544 57.5192 75.448 57.1885 75.448C56.8632 75.448 56.5699 75.5493 56.3085 75.752C56.0472 75.9493 55.9165 76.2187 55.9165 76.56ZM63.2138 77.048V74.744H64.1098V79H63.2138V78.224C63.0698 78.4853 62.8698 78.6907 62.6138 78.84C62.3632 78.9893 62.0912 79.064 61.7978 79.064C61.3178 79.064 60.9285 78.9173 60.6298 78.624C60.3365 78.3307 60.1898 77.9067 60.1898 77.352V74.744H61.0858V77.08C61.0858 77.864 61.4112 78.256 62.0618 78.256C62.3712 78.256 62.6405 78.1547 62.8698 77.952C63.0992 77.744 63.2138 77.4427 63.2138 77.048ZM66.3057 76.696V79H65.4097V74.744H66.3057V75.52C66.4497 75.2587 66.6471 75.0533 66.8977 74.904C67.1537 74.7547 67.4284 74.68 67.7217 74.68C68.2017 74.68 68.5884 74.8267 68.8817 75.12C69.1804 75.4133 69.3297 75.8373 69.3297 76.392V79H68.4337V76.664C68.4337 75.88 68.1084 75.488 67.4577 75.488C67.1484 75.488 66.8791 75.592 66.6497 75.8C66.4204 76.0027 66.3057 76.3013 66.3057 76.696ZM71.4776 79H70.5816V74.744H71.4776V79ZM70.6376 73.896C70.5256 73.784 70.4696 73.6507 70.4696 73.496C70.4696 73.3413 70.5256 73.208 70.6376 73.096C70.7496 72.984 70.8829 72.928 71.0376 72.928C71.1923 72.928 71.3256 72.984 71.4376 73.096C71.5496 73.208 71.6056 73.3413 71.6056 73.496C71.6056 73.6507 71.5496 73.784 71.4376 73.896C71.3256 74.008 71.1923 74.064 71.0376 74.064C70.8829 74.064 70.7496 74.008 70.6376 73.896ZM73.7689 77.88C74.0249 78.136 74.3476 78.264 74.7369 78.264C75.1262 78.264 75.4462 78.136 75.6969 77.88C75.9529 77.6187 76.0809 77.2827 76.0809 76.872C76.0809 76.4613 75.9529 76.128 75.6969 75.872C75.4462 75.6107 75.1262 75.48 74.7369 75.48C74.3476 75.48 74.0249 75.6107 73.7689 75.872C73.5182 76.128 73.3929 76.4613 73.3929 76.872C73.3929 77.2827 73.5182 77.6187 73.7689 77.88ZM76.3369 78.432C75.9102 78.8533 75.3769 79.064 74.7369 79.064C74.0969 79.064 73.5636 78.8533 73.1369 78.432C72.7102 78.0053 72.4969 77.4853 72.4969 76.872C72.4969 76.2587 72.7102 75.7413 73.1369 75.32C73.5636 74.8933 74.0969 74.68 74.7369 74.68C75.3769 74.68 75.9102 74.8933 76.3369 75.32C76.7636 75.7413 76.9769 76.2587 76.9769 76.872C76.9769 77.4853 76.7636 78.0053 76.3369 78.432ZM78.8917 76.696V79H77.9957V74.744H78.8917V75.52C79.0357 75.2587 79.233 75.0533 79.4837 74.904C79.7397 74.7547 80.0143 74.68 80.3077 74.68C80.7877 74.68 81.1743 74.8267 81.4677 75.12C81.7663 75.4133 81.9157 75.8373 81.9157 76.392V79H81.0197V76.664C81.0197 75.88 80.6943 75.488 80.0437 75.488C79.7343 75.488 79.465 75.592 79.2357 75.8C79.0063 76.0027 78.8917 76.3013 78.8917 76.696ZM87.1275 77.264H83.7915C83.8129 77.5733 83.9542 77.824 84.2155 78.016C84.4769 78.2027 84.7755 78.296 85.1115 78.296C85.6449 78.296 86.0502 78.128 86.3275 77.792L86.8395 78.352C86.3809 78.8267 85.7835 79.064 85.0475 79.064C84.4502 79.064 83.9409 78.8667 83.5195 78.472C83.1035 78.072 82.8955 77.5387 82.8955 76.872C82.8955 76.2 83.1089 75.6667 83.5355 75.272C83.9622 74.8773 84.4635 74.68 85.0395 74.68C85.6209 74.68 86.1142 74.856 86.5195 75.208C86.9249 75.5547 87.1275 76.0347 87.1275 76.648V77.264ZM83.7915 76.56H86.2315C86.2315 76.2027 86.1195 75.928 85.8955 75.736C85.6715 75.544 85.3942 75.448 85.0635 75.448C84.7382 75.448 84.4449 75.5493 84.1835 75.752C83.9222 75.9493 83.7915 76.2187 83.7915 76.56ZM91.1448 77.728C91.1448 78.1333 90.9982 78.4587 90.7048 78.704C90.4115 78.944 90.0355 79.064 89.5768 79.064C89.2675 79.064 88.9448 79.008 88.6088 78.896C88.2782 78.784 87.9848 78.6267 87.7288 78.424L88.1608 77.728C88.6568 78.1013 89.1368 78.288 89.6008 78.288C89.8035 78.288 89.9635 78.2427 90.0808 78.152C90.1982 78.056 90.2568 77.936 90.2568 77.792C90.2568 77.5787 89.9742 77.3867 89.4088 77.216C89.3662 77.2 89.3342 77.1893 89.3128 77.184C88.4275 76.944 87.9848 76.544 87.9848 75.984C87.9848 75.5893 88.1368 75.2747 88.4408 75.04C88.7502 74.8 89.1502 74.68 89.6408 74.68C90.1315 74.68 90.5955 74.824 91.0328 75.112L90.6968 75.776C90.3502 75.5467 89.9742 75.432 89.5688 75.432C89.3555 75.432 89.1822 75.472 89.0488 75.552C88.9155 75.6267 88.8488 75.7413 88.8488 75.896C88.8488 76.0347 88.9182 76.136 89.0568 76.2C89.1528 76.248 89.2862 76.2933 89.4568 76.336C89.6328 76.3787 89.7875 76.4213 89.9208 76.464C90.0542 76.5067 90.1822 76.5547 90.3048 76.608C90.4328 76.6613 90.5688 76.736 90.7128 76.832C91.0008 77.024 91.1448 77.3227 91.1448 77.728Z" fill="white"/>
<defs>
<filter id="filter0_ddd" x="0" y="0" width="108" height="108" filterUnits="userSpaceOnUse" color-interpolation-filters="sRGB">
<feFlood flood-opacity="0" result="BackgroundImageFix"/>
<feColorMatrix in="SourceAlpha" type="matrix" values="0 0 0 0 0 0 0 0 0 0 0 0 0 0 0 0 0 0 127 0"/>
<feOffset dy="4"/>
<feGaussianBlur stdDeviation="2"/>
<feColorMatrix type="matrix" values="0 0 0 0 0 0 0 0 0 0 0 0 0 0 0 0 0 0 0.25 0"/>
<feBlend mode="normal" in2="BackgroundImageFix" result="effect1_dropShadow"/>
<feColorMatrix in="SourceAlpha" type="matrix" values="0 0 0 0 0 0 0 0 0 0 0 0 0 0 0 0 0 0 127 0"/>
<feOffset dy="4"/>
<feGaussianBlur stdDeviation="2"/>
<feColorMatrix type="matrix" values="0 0 0 0 0 0 0 0 0 0 0 0 0 0 0 0 0 0 0.25 0"/>
<feBlend mode="normal" in2="effect1_dropShadow" result="effect2_dropShadow"/>
<feColorMatrix in="SourceAlpha" type="matrix" values="0 0 0 0 0 0 0 0 0 0 0 0 0 0 0 0 0 0 127 0"/>
<feOffset dy="4"/>
<feGaussianBlur stdDeviation="2"/>
<feColorMatrix type="matrix" values="0 0 0 0 0 0 0 0 0 0 0 0 0 0 0 0 0 0 0.25 0"/>
<feBlend mode="normal" in2="effect2_dropShadow" result="effect3_dropShadow"/>
<feBlend mode="normal" in="SourceGraphic" in2="effect3_dropShadow" result="shape"/>
</filter>
<filter id="filter1_d" x="21" y="16" width="67" height="57" filterUnits="userSpaceOnUse" color-interpolation-filters="sRGB">
<feFlood flood-opacity="0" result="BackgroundImageFix"/>
<feColorMatrix in="SourceAlpha" type="matrix" values="0 0 0 0 0 0 0 0 0 0 0 0 0 0 0 0 0 0 127 0"/>
<feOffset dy="4"/>
<feGaussianBlur stdDeviation="2"/>
<feColorMatrix type="matrix" values="0 0 0 0 0 0 0 0 0 0 0 0 0 0 0 0 0 0 0.25 0"/>
<feBlend mode="normal" in2="BackgroundImageFix" result="effect1_dropShadow"/>
<feBlend mode="normal" in="SourceGraphic" in2="effect1_dropShadow" result="shape"/>
</filter>
</defs>
</svg>
