<svg width="108" height="108" viewBox="0 0 108 108" fill="none" xmlns="http://www.w3.org/2000/svg">
<g filter="url(#filter0_ddd)">
<rect x="4" width="100" height="100" rx="20" fill="#0F88BF"/>
</g>
<path d="M28.6451 33.0784C28.6451 33.0784 27.832 32.8124 27.5513 32.0419C27.5513 32.0419 34.2197 23.876 35.2707 24.7267L49.4897 38.2014L43.3566 43.236L46.8184 39.9555L45.8613 39.0485L40.4032 44.2209C40.4032 44.2209 39.5901 43.9549 39.3094 43.1844L44.7662 38.0133L43.8091 37.1064L38.3523 42.2775C38.3523 42.2775 37.5393 42.0115 37.2586 41.241L42.7153 36.0699L41.7583 35.1629L36.3015 40.334C36.3015 40.334 35.4884 40.068 35.2077 39.2975L40.6645 34.1264L39.8442 33.349L34.3874 38.5201C34.3874 38.5201 33.5743 38.2541 33.2936 37.4836L38.7504 32.3125L37.9301 31.5351L32.4733 36.7062C32.4733 36.7062 31.6602 36.4402 31.3795 35.6697L36.8363 30.4986L36.016 29.7212L30.5592 34.8923C30.5592 34.8923 29.7461 34.6263 29.4654 33.8558L34.9222 28.6847L34.1019 27.9073L28.6451 33.0784Z" fill="#6F9EB3"/>
<path d="M61.5986 64.3073C61.5986 64.3073 61.8799 65.0772 62.6924 65.3438C62.6924 65.3438 71.8159 59.1475 70.3948 58.0446L56.1758 44.5699L50.8755 50.3701L54.3297 47.0967L55.2868 48.0037L49.8406 53.1648C49.8406 53.1648 50.1218 53.9347 50.9343 54.2013L56.3791 49.0415L57.3362 49.9484L51.8914 55.1082C51.8914 55.1082 52.1727 55.8782 52.9851 56.1447L58.43 50.985L59.387 51.8919L53.9422 57.0517C53.9422 57.0517 54.2235 57.8216 55.036 58.0882L60.4808 52.9284L61.3011 53.7058L55.8563 58.8656C55.8563 58.8656 56.1376 59.6355 56.9501 59.9021L62.3949 54.7423L63.2152 55.5197L57.7704 60.6795C57.7704 60.6795 58.0517 61.4494 58.8642 61.716L64.309 56.5562L65.1293 57.3336L59.6845 62.4934C59.6845 62.4934 59.9658 63.2633 60.7783 63.5299L66.2231 58.3701L67.0434 59.1475L61.5986 64.3073Z" fill="#385264"/>
<path d="M61.6178 42.3911L60.2166 39.5409C56.7676 41.475 56.5161 38.3533 53.7856 38.7944C52.3844 39.2355 31.0793 51.2811 31.0793 51.2811C29.1751 52.5366 29.9655 53.8599 29.9655 53.8599L41.2468 49.7542L50.085 46.5986L59.067 43.2733L61.6178 42.3911Z" fill="#385264"/>
<path d="M75.1142 32.7414C72.5054 34.2314 71.5043 37.0682 72.8781 39.0775C74.2519 41.0868 77.4804 41.5078 80.0893 40.0178C82.6981 38.5278 83.6992 35.691 82.3254 33.6817C80.9516 31.6724 77.723 31.2514 75.1142 32.7414ZM79.3668 38.9611C77.5157 40.0184 75.2248 39.7196 74.25 38.2939C73.2752 36.8682 73.9856 34.8553 75.8367 33.7981C77.6878 32.7408 79.9787 33.0395 80.9535 34.4653C81.9283 35.891 81.2179 37.9039 79.3668 38.9611Z" fill="#D6222B"/>
<path d="M75.8951 32.522L79.8619 32.9154L80.9912 29.4346C80.9912 29.4346 79.8247 28.9813 78.7352 29.6405C78.7352 29.6405 60.3678 39.2011 59.881 39.6436C59.679 40.011 61.2146 42.6821 61.6441 42.6351C63.8628 42.3922 67.4567 41.4403 68.3162 41.3649C70.034 41.1769 71.7279 41.3176 72.344 41.4612C76.4342 42.2769 76.8624 42.1971 77.4713 42.1442C77.4713 42.1442 79.6531 41.8752 81.7855 40.2633C81.7855 40.2633 82.9718 39.3058 83.7703 37.574C83.7703 37.574 84.3035 36.4414 84.3818 34.6679C84.3818 34.6679 84.2974 32.3751 83.0229 30.9415C83.0229 30.9415 82.3024 29.9159 80.9912 29.4346L79.8619 32.9154L82.0371 34.4175L80.8569 39.4413L78.2339 40.4136L73.3744 39.1971L72.1847 37.1376L75.8951 32.522Z" fill="#D6222B"/>
<path d="M52.0303 33.5107L55.0466 34.8379C52.9998 38.1046 56.3034 38.3428 55.8366 40.929C55.3697 42.2561 42.6222 62.4351 42.6222 62.4351C41.2936 64.2386 39.8932 63.49 39.8932 63.49L44.2381 52.805L47.5776 44.4339L51.0966 35.9268L52.0303 33.5107Z" fill="#6F9EB3"/>
<path d="M61.7553 21.0256C60.2184 23.5483 57.1485 24.5955 54.8986 23.3645C52.6487 22.1335 52.0708 19.0905 53.6077 16.5678C55.1447 14.0451 58.2145 12.9979 60.4644 14.2289C62.7143 15.4599 63.2923 18.5028 61.7553 21.0256ZM54.7909 17.2152C53.7003 19.0052 54.1104 21.1644 55.7069 22.0378C57.3033 22.9113 59.4816 22.1682 60.5721 20.3782C61.6627 18.5882 61.2526 16.429 59.6562 15.5555C58.0597 14.6821 55.8815 15.4251 54.7909 17.2152Z" fill="#D6222B"/>
<path d="M61.9673 20.2784L61.3928 16.5352L65.1632 15.3442C65.1632 15.3442 65.7018 16.4332 65.0195 17.488C65.0195 17.488 55.2165 35.217 54.7497 35.6934C54.3547 35.8975 51.3743 34.5364 51.4102 34.1281C51.5958 32.0183 52.5079 28.5814 52.5593 27.7647C52.7029 26.1313 52.4875 24.532 52.3079 23.9535C51.2666 20.1083 51.3384 19.6999 51.3743 19.1214C51.3743 19.1214 51.5898 17.0457 53.2775 14.9699C53.2775 14.9699 54.2829 13.813 56.1501 12.9963C56.1501 12.9963 57.371 12.4518 59.3101 12.3157C59.3101 12.3157 61.8237 12.3157 63.4396 13.4727C63.4396 13.4727 64.5886 14.1192 65.1632 15.3442L61.3928 16.5352L59.6692 14.5276L54.2111 15.8206L53.2415 18.3388L54.7497 22.8986L57.0478 23.9535L61.9673 20.2784Z" fill="#D6222B"/>
<ellipse cx="52.1021" cy="41.8478" rx="1.2568" ry="1.191" fill="#C4C4C4"/>
<path d="M19.4757 74.144C19.2037 74.144 18.9797 74.2 18.8037 74.312C18.6277 74.424 18.5397 74.5947 18.5397 74.824C18.5397 75.048 18.6277 75.2213 18.8037 75.344C18.9797 75.4613 19.3531 75.5893 19.9237 75.728C20.4997 75.8667 20.9317 76.0613 21.2197 76.312C21.5131 76.5627 21.6597 76.9333 21.6597 77.424C21.6597 77.9093 21.4757 78.304 21.1077 78.608C20.7397 78.912 20.2571 79.064 19.6597 79.064C18.7851 79.064 18.0091 78.7627 17.3317 78.16L17.9237 77.448C18.4891 77.9387 19.0757 78.184 19.6837 78.184C19.9877 78.184 20.2277 78.12 20.4037 77.992C20.5851 77.8587 20.6757 77.6853 20.6757 77.472C20.6757 77.2533 20.5904 77.0853 20.4197 76.968C20.2544 76.8453 19.9664 76.736 19.5557 76.64C19.1451 76.5387 18.8331 76.448 18.6197 76.368C18.4064 76.2827 18.2171 76.1733 18.0517 76.04C17.7211 75.7893 17.5557 75.4053 17.5557 74.888C17.5557 74.3707 17.7424 73.9733 18.1157 73.696C18.4944 73.4133 18.9611 73.272 19.5157 73.272C19.8731 73.272 20.2277 73.3307 20.5797 73.448C20.9317 73.5653 21.2357 73.7307 21.4917 73.944L20.9877 74.656C20.8224 74.5067 20.5984 74.384 20.3157 74.288C20.0331 74.192 19.7531 74.144 19.4757 74.144ZM26.1468 79H25.3308V78.432C24.9788 78.8533 24.5068 79.064 23.9148 79.064C23.4721 79.064 23.1041 78.9387 22.8108 78.688C22.5228 78.4373 22.3788 78.104 22.3788 77.688C22.3788 77.2667 22.5334 76.952 22.8428 76.744C23.1521 76.536 23.5708 76.432 24.0988 76.432H25.2588V76.272C25.2588 75.7067 24.9441 75.424 24.3148 75.424C23.9201 75.424 23.5094 75.568 23.0828 75.856L22.6828 75.296C23.2001 74.8853 23.7868 74.68 24.4428 74.68C24.9441 74.68 25.3521 74.808 25.6668 75.064C25.9868 75.3147 26.1468 75.712 26.1468 76.256V79ZM25.2508 77.416V77.056H24.2428C23.5974 77.056 23.2748 77.2587 23.2748 77.664C23.2748 77.872 23.3548 78.032 23.5148 78.144C23.6748 78.2507 23.8961 78.304 24.1788 78.304C24.4668 78.304 24.7174 78.224 24.9308 78.064C25.1441 77.904 25.2508 77.688 25.2508 77.416ZM28.2901 79H27.3941V73.064H28.2901V79ZM30.5814 77.88C30.8374 78.136 31.1601 78.264 31.5494 78.264C31.9387 78.264 32.2587 78.136 32.5094 77.88C32.7654 77.6187 32.8934 77.2827 32.8934 76.872C32.8934 76.4613 32.7654 76.128 32.5094 75.872C32.2587 75.6107 31.9387 75.48 31.5494 75.48C31.1601 75.48 30.8374 75.6107 30.5814 75.872C30.3307 76.128 30.2054 76.4613 30.2054 76.872C30.2054 77.2827 30.3307 77.6187 30.5814 77.88ZM33.1494 78.432C32.7227 78.8533 32.1894 79.064 31.5494 79.064C30.9094 79.064 30.3761 78.8533 29.9494 78.432C29.5227 78.0053 29.3094 77.4853 29.3094 76.872C29.3094 76.2587 29.5227 75.7413 29.9494 75.32C30.3761 74.8933 30.9094 74.68 31.5494 74.68C32.1894 74.68 32.7227 74.8933 33.1494 75.32C33.5761 75.7413 33.7894 76.2587 33.7894 76.872C33.7894 77.4853 33.5761 78.0053 33.1494 78.432ZM35.7042 76.696V79H34.8082V74.744H35.7042V75.52C35.8482 75.2587 36.0455 75.0533 36.2962 74.904C36.5522 74.7547 36.8268 74.68 37.1202 74.68C37.6002 74.68 37.9868 74.8267 38.2802 75.12C38.5788 75.4133 38.7282 75.8373 38.7282 76.392V79H37.8322V76.664C37.8322 75.88 37.5068 75.488 36.8562 75.488C36.5468 75.488 36.2775 75.592 36.0482 75.8C35.8188 76.0027 35.7042 76.3013 35.7042 76.696ZM43.94 77.264H40.604C40.6254 77.5733 40.7667 77.824 41.028 78.016C41.2894 78.2027 41.588 78.296 41.924 78.296C42.4574 78.296 42.8627 78.128 43.14 77.792L43.652 78.352C43.1934 78.8267 42.596 79.064 41.86 79.064C41.2627 79.064 40.7534 78.8667 40.332 78.472C39.916 78.072 39.708 77.5387 39.708 76.872C39.708 76.2 39.9214 75.6667 40.348 75.272C40.7747 74.8773 41.276 74.68 41.852 74.68C42.4334 74.68 42.9267 74.856 43.332 75.208C43.7374 75.5547 43.94 76.0347 43.94 76.648V77.264ZM40.604 76.56H43.044C43.044 76.2027 42.932 75.928 42.708 75.736C42.484 75.544 42.2067 75.448 41.876 75.448C41.5507 75.448 41.2574 75.5493 40.996 75.752C40.7347 75.9493 40.604 76.2187 40.604 76.56ZM47.9573 77.728C47.9573 78.1333 47.8107 78.4587 47.5173 78.704C47.224 78.944 46.848 79.064 46.3893 79.064C46.08 79.064 45.7573 79.008 45.4213 78.896C45.0907 78.784 44.7973 78.6267 44.5413 78.424L44.9733 77.728C45.4693 78.1013 45.9493 78.288 46.4133 78.288C46.616 78.288 46.776 78.2427 46.8933 78.152C47.0107 78.056 47.0693 77.936 47.0693 77.792C47.0693 77.5787 46.7867 77.3867 46.2213 77.216C46.1787 77.2 46.1467 77.1893 46.1253 77.184C45.24 76.944 44.7973 76.544 44.7973 75.984C44.7973 75.5893 44.9493 75.2747 45.2533 75.04C45.5627 74.8 45.9627 74.68 46.4533 74.68C46.944 74.68 47.408 74.824 47.8453 75.112L47.5093 75.776C47.1627 75.5467 46.7867 75.432 46.3813 75.432C46.168 75.432 45.9947 75.472 45.8613 75.552C45.728 75.6267 45.6613 75.7413 45.6613 75.896C45.6613 76.0347 45.7307 76.136 45.8693 76.2C45.9653 76.248 46.0987 76.2933 46.2693 76.336C46.4453 76.3787 46.6 76.4213 46.7333 76.464C46.8667 76.5067 46.9947 76.5547 47.1173 76.608C47.2453 76.6613 47.3813 76.736 47.5253 76.832C47.8133 77.024 47.9573 77.3227 47.9573 77.728ZM52.9035 79.064C52.3649 79.064 51.8955 78.8613 51.4955 78.456C51.0955 78.0507 50.8955 77.5173 50.8955 76.856C50.8955 76.1947 51.1009 75.6667 51.5115 75.272C51.9222 74.8773 52.4102 74.68 52.9755 74.68C53.5462 74.68 54.0049 74.92 54.3515 75.4V73.064H55.2475V79H54.3515V78.36C54.0209 78.8293 53.5382 79.064 52.9035 79.064ZM51.7915 76.896C51.7915 77.3013 51.9222 77.632 52.1835 77.888C52.4449 78.144 52.7515 78.272 53.1035 78.272C53.4555 78.272 53.7542 78.144 53.9995 77.888C54.2449 77.6267 54.3675 77.2933 54.3675 76.888C54.3675 76.4827 54.2449 76.144 53.9995 75.872C53.7542 75.6 53.4529 75.464 53.0955 75.464C52.7382 75.464 52.4315 75.6 52.1755 75.872C51.9195 76.144 51.7915 76.4853 51.7915 76.896ZM60.5025 77.264H57.1665C57.1879 77.5733 57.3292 77.824 57.5905 78.016C57.8519 78.2027 58.1505 78.296 58.4865 78.296C59.0199 78.296 59.4252 78.128 59.7025 77.792L60.2145 78.352C59.7559 78.8267 59.1585 79.064 58.4225 79.064C57.8252 79.064 57.3159 78.8667 56.8945 78.472C56.4785 78.072 56.2705 77.5387 56.2705 76.872C56.2705 76.2 56.4839 75.6667 56.9105 75.272C57.3372 74.8773 57.8385 74.68 58.4145 74.68C58.9959 74.68 59.4892 74.856 59.8945 75.208C60.2999 75.5547 60.5025 76.0347 60.5025 76.648V77.264ZM57.1665 76.56H59.6065C59.6065 76.2027 59.4945 75.928 59.2705 75.736C59.0465 75.544 58.7692 75.448 58.4385 75.448C58.1132 75.448 57.8199 75.5493 57.5585 75.752C57.2972 75.9493 57.1665 76.2187 57.1665 76.56ZM66.2592 79H63.8112V73.408H65.9872C66.3658 73.408 66.6912 73.4533 66.9632 73.544C67.2405 73.6347 67.4458 73.7573 67.5792 73.912C67.8352 74.2 67.9632 74.5253 67.9632 74.888C67.9632 75.3253 67.8245 75.6507 67.5472 75.864C67.4458 75.9387 67.3765 75.9867 67.3392 76.008C67.3018 76.024 67.2352 76.0533 67.1392 76.096C67.4858 76.1707 67.7605 76.328 67.9632 76.568C68.1712 76.8027 68.2752 77.096 68.2752 77.448C68.2752 77.8373 68.1418 78.1813 67.8752 78.48C67.5605 78.8267 67.0218 79 66.2592 79ZM64.7552 75.728H65.9552C66.6378 75.728 66.9792 75.496 66.9792 75.032C66.9792 74.7653 66.8965 74.5733 66.7312 74.456C66.5658 74.3387 66.3098 74.28 65.9632 74.28H64.7552V75.728ZM64.7552 78.128H66.2352C66.5818 78.128 66.8458 78.0747 67.0272 77.968C67.2138 77.856 67.3072 77.648 67.3072 77.344C67.3072 76.848 66.9098 76.6 66.1152 76.6H64.7552V78.128ZM73.2916 77.264H69.9556C69.9769 77.5733 70.1183 77.824 70.3796 78.016C70.6409 78.2027 70.9396 78.296 71.2756 78.296C71.8089 78.296 72.2143 78.128 72.4916 77.792L73.0036 78.352C72.5449 78.8267 71.9476 79.064 71.2116 79.064C70.6143 79.064 70.1049 78.8667 69.6836 78.472C69.2676 78.072 69.0596 77.5387 69.0596 76.872C69.0596 76.2 69.2729 75.6667 69.6996 75.272C70.1263 74.8773 70.6276 74.68 71.2036 74.68C71.7849 74.68 72.2783 74.856 72.6836 75.208C73.0889 75.5547 73.2916 76.0347 73.2916 76.648V77.264ZM69.9556 76.56H72.3956C72.3956 76.2027 72.2836 75.928 72.0596 75.736C71.8356 75.544 71.5583 75.448 71.2276 75.448C70.9023 75.448 70.6089 75.5493 70.3476 75.752C70.0863 75.9493 69.9556 76.2187 69.9556 76.56ZM75.1729 79H74.2769V73.064H75.1729V79ZM77.3682 79H76.4722V73.064H77.3682V79ZM82.6275 77.264H79.2915C79.3129 77.5733 79.4542 77.824 79.7155 78.016C79.9769 78.2027 80.2755 78.296 80.6115 78.296C81.1449 78.296 81.5502 78.128 81.8275 77.792L82.3395 78.352C81.8809 78.8267 81.2835 79.064 80.5475 79.064C79.9502 79.064 79.4409 78.8667 79.0195 78.472C78.6035 78.072 78.3955 77.5387 78.3955 76.872C78.3955 76.2 78.6089 75.6667 79.0355 75.272C79.4622 74.8773 79.9635 74.68 80.5395 74.68C81.1209 74.68 81.6142 74.856 82.0195 75.208C82.4249 75.5547 82.6275 76.0347 82.6275 76.648V77.264ZM79.2915 76.56H81.7315C81.7315 76.2027 81.6195 75.928 81.3955 75.736C81.1715 75.544 80.8942 75.448 80.5635 75.448C80.2382 75.448 79.9449 75.5493 79.6835 75.752C79.4222 75.9493 79.2915 76.2187 79.2915 76.56ZM83.4768 75.528V74.76H86.8048V75.568L84.4128 78.224H86.9328V79H83.3168V78.128L85.6448 75.528H83.4768ZM91.389 79H90.573V78.432C90.221 78.8533 89.749 79.064 89.157 79.064C88.7143 79.064 88.3463 78.9387 88.053 78.688C87.765 78.4373 87.621 78.104 87.621 77.688C87.621 77.2667 87.7756 76.952 88.085 76.744C88.3943 76.536 88.813 76.432 89.341 76.432H90.501V76.272C90.501 75.7067 90.1863 75.424 89.557 75.424C89.1623 75.424 88.7516 75.568 88.325 75.856L87.925 75.296C88.4423 74.8853 89.029 74.68 89.685 74.68C90.1863 74.68 90.5943 74.808 90.909 75.064C91.229 75.3147 91.389 75.712 91.389 76.256V79ZM90.493 77.416V77.056H89.485C88.8396 77.056 88.517 77.2587 88.517 77.664C88.517 77.872 88.597 78.032 88.757 78.144C88.917 78.2507 89.1383 78.304 89.421 78.304C89.709 78.304 89.9596 78.224 90.173 78.064C90.3863 77.904 90.493 77.688 90.493 77.416Z" fill="white"/>
<defs>
<filter id="filter0_ddd" x="0" y="0" width="108" height="108" filterUnits="userSpaceOnUse" color-interpolation-filters="sRGB">
<feFlood flood-opacity="0" result="BackgroundImageFix"/>
<feColorMatrix in="SourceAlpha" type="matrix" values="0 0 0 0 0 0 0 0 0 0 0 0 0 0 0 0 0 0 127 0"/>
<feOffset dy="4"/>
<feGaussianBlur stdDeviation="2"/>
<feColorMatrix type="matrix" values="0 0 0 0 0 0 0 0 0 0 0 0 0 0 0 0 0 0 0.25 0"/>
<feBlend mode="normal" in2="BackgroundImageFix" result="effect1_dropShadow"/>
<feColorMatrix in="SourceAlpha" type="matrix" values="0 0 0 0 0 0 0 0 0 0 0 0 0 0 0 0 0 0 127 0"/>
<feOffset dy="4"/>
<feGaussianBlur stdDeviation="2"/>
<feColorMatrix type="matrix" values="0 0 0 0 0 0 0 0 0 0 0 0 0 0 0 0 0 0 0.25 0"/>
<feBlend mode="normal" in2="effect1_dropShadow" result="effect2_dropShadow"/>
<feColorMatrix in="SourceAlpha" type="matrix" values="0 0 0 0 0 0 0 0 0 0 0 0 0 0 0 0 0 0 127 0"/>
<feOffset dy="4"/>
<feGaussianBlur stdDeviation="2"/>
<feColorMatrix type="matrix" values="0 0 0 0 0 0 0 0 0 0 0 0 0 0 0 0 0 0 0.25 0"/>
<feBlend mode="normal" in2="effect2_dropShadow" result="effect3_dropShadow"/>
<feBlend mode="normal" in="SourceGraphic" in2="effect3_dropShadow" result="shape"/>
</filter>
</defs>
</svg>
