<svg width="108" height="108" viewBox="0 0 108 108" fill="none" xmlns="http://www.w3.org/2000/svg">
<g filter="url(#filter0_ddd)">
<rect x="4" width="100" height="100" rx="20" fill="#047F9E"/>
</g>
<g filter="url(#filter1_d)">
<path d="M33.439 36.4834V47.2159H15L33.439 36.4834Z" fill="#63975F"/>
<rect x="62.8048" y="31.0591" width="22.1951" height="6.04428" fill="#6A986A"/>
<rect x="32.0732" y="62.8303" width="51.3902" height="2.16974" fill="#351C08"/>
<rect x="33.439" y="37.1033" width="50.0244" height="25.7269" fill="#E0DA86"/>
<rect x="51.3658" y="37.1033" width="14.1707" height="25.7269" fill="#FFF0B0"/>
<rect x="28.6585" y="37.1033" width="49.6829" height="0.929889" fill="#351C08"/>
<path d="M53.5 23L78.4141 37.1808H28.5859L53.5 23Z" fill="#3E5B49"/>
<rect x="45.0488" y="37.7233" width="26.8049" height="0.774908" fill="#351C08"/>
<path d="M58.4512 30.7491L71.8324 37.7233H45.0701L58.4512 30.7491Z" fill="#649B65"/>
<rect x="17.561" y="47.1771" width="2.56098" height="17.8229" fill="#351C08"/>
<rect x="36.3415" y="41.9077" width="13.1463" height="6.50922" fill="#351C08"/>
<rect x="37.1952" y="42.6826" width="1.87805" height="4.95941" fill="#5C7E51"/>
<rect x="39.5853" y="42.6826" width="5.46341" height="4.95941" fill="#63815D"/>
<rect x="45.561" y="42.6826" width="2.90244" height="4.95941" fill="#628063"/>
<rect x="36.3415" y="51.9815" width="6.4878" height="10.8487" fill="#341905"/>
<rect x="41.8049" y="58.0258" width="0.512195" height="1.23985" fill="#C4C4C4"/>
<rect x="53.9268" y="40.5129" width="9.04878" height="19.0627" fill="#341905"/>
<rect x="54.7805" y="41.2878" width="7.34146" height="17.3579" fill="#63815D"/>
<rect x="70.8293" y="41.9077" width="8.53658" height="6.50922" fill="#341905"/>
<rect x="71.6829" y="42.6826" width="1.36585" height="4.95941" fill="#628063"/>
<rect x="73.7317" y="42.6826" width="4.60976" height="4.95941" fill="#628063"/>
<rect x="71.6829" y="42.6826" width="1.36585" height="4.95941" fill="#628063"/>
<rect x="70.8293" y="50.8967" width="8.53658" height="6.50922" fill="#341905"/>
<rect x="73.7317" y="51.6716" width="4.60976" height="4.95941" fill="#628063"/>
<rect x="71.6829" y="51.6716" width="1.36585" height="4.95941" fill="#628063"/>
<rect x="73.7317" y="42.6826" width="4.60976" height="4.95941" fill="#628063"/>
</g>
<path d="M26.5382 76.144C26.2662 76.144 26.0422 76.2 25.8662 76.312C25.6902 76.424 25.6022 76.5947 25.6022 76.824C25.6022 77.048 25.6902 77.2213 25.8662 77.344C26.0422 77.4613 26.4156 77.5893 26.9862 77.728C27.5622 77.8667 27.9942 78.0613 28.2822 78.312C28.5756 78.5627 28.7222 78.9333 28.7222 79.424C28.7222 79.9093 28.5382 80.304 28.1702 80.608C27.8022 80.912 27.3196 81.064 26.7222 81.064C25.8476 81.064 25.0716 80.7627 24.3942 80.16L24.9862 79.448C25.5516 79.9387 26.1382 80.184 26.7462 80.184C27.0502 80.184 27.2902 80.12 27.4662 79.992C27.6476 79.8587 27.7382 79.6853 27.7382 79.472C27.7382 79.2533 27.6529 79.0853 27.4822 78.968C27.3169 78.8453 27.0289 78.736 26.6182 78.64C26.2076 78.5387 25.8956 78.448 25.6822 78.368C25.4689 78.2827 25.2796 78.1733 25.1142 78.04C24.7836 77.7893 24.6182 77.4053 24.6182 76.888C24.6182 76.3707 24.8049 75.9733 25.1782 75.696C25.5569 75.4133 26.0236 75.272 26.5782 75.272C26.9356 75.272 27.2902 75.3307 27.6422 75.448C27.9942 75.5653 28.2982 75.7307 28.5542 75.944L28.0502 76.656C27.8849 76.5067 27.6609 76.384 27.3782 76.288C27.0956 76.192 26.8156 76.144 26.5382 76.144ZM33.2093 81H32.3933V80.432C32.0413 80.8533 31.5693 81.064 30.9773 81.064C30.5346 81.064 30.1666 80.9387 29.8733 80.688C29.5853 80.4373 29.4413 80.104 29.4413 79.688C29.4413 79.2667 29.5959 78.952 29.9053 78.744C30.2146 78.536 30.6333 78.432 31.1613 78.432H32.3213V78.272C32.3213 77.7067 32.0066 77.424 31.3773 77.424C30.9826 77.424 30.5719 77.568 30.1453 77.856L29.7453 77.296C30.2626 76.8853 30.8493 76.68 31.5053 76.68C32.0066 76.68 32.4146 76.808 32.7293 77.064C33.0493 77.3147 33.2093 77.712 33.2093 78.256V81ZM32.3133 79.416V79.056H31.3053C30.6599 79.056 30.3373 79.2587 30.3373 79.664C30.3373 79.872 30.4173 80.032 30.5773 80.144C30.7373 80.2507 30.9586 80.304 31.2413 80.304C31.5293 80.304 31.7799 80.224 31.9933 80.064C32.2066 79.904 32.3133 79.688 32.3133 79.416ZM35.3526 81H34.4566V75.064H35.3526V81ZM37.6439 79.88C37.8999 80.136 38.2226 80.264 38.6119 80.264C39.0012 80.264 39.3212 80.136 39.5719 79.88C39.8279 79.6187 39.9559 79.2827 39.9559 78.872C39.9559 78.4613 39.8279 78.128 39.5719 77.872C39.3212 77.6107 39.0012 77.48 38.6119 77.48C38.2226 77.48 37.8999 77.6107 37.6439 77.872C37.3932 78.128 37.2679 78.4613 37.2679 78.872C37.2679 79.2827 37.3932 79.6187 37.6439 79.88ZM40.2119 80.432C39.7852 80.8533 39.2519 81.064 38.6119 81.064C37.9719 81.064 37.4386 80.8533 37.0119 80.432C36.5852 80.0053 36.3719 79.4853 36.3719 78.872C36.3719 78.2587 36.5852 77.7413 37.0119 77.32C37.4386 76.8933 37.9719 76.68 38.6119 76.68C39.2519 76.68 39.7852 76.8933 40.2119 77.32C40.6386 77.7413 40.8519 78.2587 40.8519 78.872C40.8519 79.4853 40.6386 80.0053 40.2119 80.432ZM39.0199 76.2H38.2039L39.0519 75.04L39.9959 75.432L39.0199 76.2ZM42.7667 78.696V81H41.8707V76.744H42.7667V77.52C42.9107 77.2587 43.108 77.0533 43.3587 76.904C43.6147 76.7547 43.8893 76.68 44.1827 76.68C44.6627 76.68 45.0493 76.8267 45.3427 77.12C45.6413 77.4133 45.7907 77.8373 45.7907 78.392V81H44.8947V78.664C44.8947 77.88 44.5693 77.488 43.9187 77.488C43.6093 77.488 43.34 77.592 43.1107 77.8C42.8813 78.0027 42.7667 78.3013 42.7667 78.696ZM51.9178 80.144C52.2432 80.144 52.5232 80.0907 52.7578 79.984C52.9925 79.872 53.2378 79.696 53.4938 79.456L54.1018 80.08C53.5098 80.736 52.7898 81.064 51.9418 81.064C51.0992 81.064 50.3978 80.792 49.8378 80.248C49.2832 79.704 49.0058 79.016 49.0058 78.184C49.0058 77.352 49.2885 76.6587 49.8538 76.104C50.4245 75.5493 51.1418 75.272 52.0058 75.272C52.8752 75.272 53.6005 75.592 54.1818 76.232L53.5818 76.888C53.3152 76.632 53.0618 76.4533 52.8218 76.352C52.5872 76.2507 52.3098 76.2 51.9898 76.2C51.4245 76.2 50.9498 76.384 50.5658 76.752C50.1818 77.1147 49.9898 77.5813 49.9898 78.152C49.9898 78.7173 50.1792 79.192 50.5578 79.576C50.9418 79.9547 51.3952 80.144 51.9178 80.144ZM56.0033 79.88C56.2593 80.136 56.5819 80.264 56.9713 80.264C57.3606 80.264 57.6806 80.136 57.9313 79.88C58.1873 79.6187 58.3153 79.2827 58.3153 78.872C58.3153 78.4613 58.1873 78.128 57.9313 77.872C57.6806 77.6107 57.3606 77.48 56.9713 77.48C56.5819 77.48 56.2593 77.6107 56.0033 77.872C55.7526 78.128 55.6273 78.4613 55.6273 78.872C55.6273 79.2827 55.7526 79.6187 56.0033 79.88ZM58.5713 80.432C58.1446 80.8533 57.6113 81.064 56.9713 81.064C56.3313 81.064 55.7979 80.8533 55.3713 80.432C54.9446 80.0053 54.7313 79.4853 54.7313 78.872C54.7313 78.2587 54.9446 77.7413 55.3713 77.32C55.7979 76.8933 56.3313 76.68 56.9713 76.68C57.6113 76.68 58.1446 76.8933 58.5713 77.32C58.9979 77.7413 59.2113 78.2587 59.2113 78.872C59.2113 79.4853 58.9979 80.0053 58.5713 80.432ZM61.126 78.696V81H60.23V76.744H61.126V77.52C61.254 77.2587 61.446 77.0533 61.702 76.904C61.9634 76.7547 62.2434 76.68 62.542 76.68C63.214 76.68 63.67 76.9573 63.91 77.512C64.3314 76.9573 64.8567 76.68 65.486 76.68C65.966 76.68 66.3527 76.8267 66.646 77.12C66.9447 77.4133 67.094 77.8373 67.094 78.392V81H66.198V78.664C66.198 77.88 65.8727 77.488 65.222 77.488C64.918 77.488 64.6514 77.5867 64.422 77.784C64.198 77.976 64.0807 78.2587 64.07 78.632V81H63.174V78.664C63.174 78.2587 63.102 77.9627 62.958 77.776C62.814 77.584 62.5874 77.488 62.278 77.488C61.9687 77.488 61.6994 77.592 61.47 77.8C61.2407 78.0027 61.126 78.3013 61.126 78.696ZM71.3154 79.048V76.744H72.2114V81H71.3154V80.224C71.1714 80.4853 70.9714 80.6907 70.7154 80.84C70.4647 80.9893 70.1927 81.064 69.8994 81.064C69.4194 81.064 69.0301 80.9173 68.7314 80.624C68.4381 80.3307 68.2914 79.9067 68.2914 79.352V76.744H69.1874V79.08C69.1874 79.864 69.5127 80.256 70.1634 80.256C70.4727 80.256 70.7421 80.1547 70.9714 79.952C71.2007 79.744 71.3154 79.4427 71.3154 79.048ZM74.4073 78.696V81H73.5113V76.744H74.4073V77.52C74.5513 77.2587 74.7486 77.0533 74.9993 76.904C75.2553 76.7547 75.5299 76.68 75.8233 76.68C76.3033 76.68 76.6899 76.8267 76.9833 77.12C77.2819 77.4133 77.4313 77.8373 77.4313 78.392V81H76.5353V78.664C76.5353 77.88 76.2099 77.488 75.5593 77.488C75.2499 77.488 74.9806 77.592 74.7513 77.8C74.5219 78.0027 74.4073 78.3013 74.4073 78.696ZM82.1312 81H81.3152V80.432C80.9632 80.8533 80.4912 81.064 79.8992 81.064C79.4565 81.064 79.0885 80.9387 78.7952 80.688C78.5072 80.4373 78.3632 80.104 78.3632 79.688C78.3632 79.2667 78.5178 78.952 78.8272 78.744C79.1365 78.536 79.5552 78.432 80.0832 78.432H81.2432V78.272C81.2432 77.7067 80.9285 77.424 80.2992 77.424C79.9045 77.424 79.4938 77.568 79.0672 77.856L78.6672 77.296C79.1845 76.8853 79.7712 76.68 80.4272 76.68C80.9285 76.68 81.3365 76.808 81.6512 77.064C81.9712 77.3147 82.1312 77.712 82.1312 78.256V81ZM81.2352 79.416V79.056H80.2272C79.5818 79.056 79.2592 79.2587 79.2592 79.664C79.2592 79.872 79.3392 80.032 79.4992 80.144C79.6592 80.2507 79.8805 80.304 80.1632 80.304C80.4512 80.304 80.7018 80.224 80.9152 80.064C81.1285 79.904 81.2352 79.688 81.2352 79.416ZM84.2745 81H83.3785V75.064H84.2745V81Z" fill="white"/>
<defs>
<filter id="filter0_ddd" x="0" y="0" width="108" height="108" filterUnits="userSpaceOnUse" color-interpolation-filters="sRGB">
<feFlood flood-opacity="0" result="BackgroundImageFix"/>
<feColorMatrix in="SourceAlpha" type="matrix" values="0 0 0 0 0 0 0 0 0 0 0 0 0 0 0 0 0 0 127 0"/>
<feOffset dy="4"/>
<feGaussianBlur stdDeviation="2"/>
<feColorMatrix type="matrix" values="0 0 0 0 0 0 0 0 0 0 0 0 0 0 0 0 0 0 0.25 0"/>
<feBlend mode="normal" in2="BackgroundImageFix" result="effect1_dropShadow"/>
<feColorMatrix in="SourceAlpha" type="matrix" values="0 0 0 0 0 0 0 0 0 0 0 0 0 0 0 0 0 0 127 0"/>
<feOffset dy="4"/>
<feGaussianBlur stdDeviation="2"/>
<feColorMatrix type="matrix" values="0 0 0 0 0 0 0 0 0 0 0 0 0 0 0 0 0 0 0.25 0"/>
<feBlend mode="normal" in2="effect1_dropShadow" result="effect2_dropShadow"/>
<feColorMatrix in="SourceAlpha" type="matrix" values="0 0 0 0 0 0 0 0 0 0 0 0 0 0 0 0 0 0 127 0"/>
<feOffset dy="4"/>
<feGaussianBlur stdDeviation="2"/>
<feColorMatrix type="matrix" values="0 0 0 0 0 0 0 0 0 0 0 0 0 0 0 0 0 0 0.25 0"/>
<feBlend mode="normal" in2="effect2_dropShadow" result="effect3_dropShadow"/>
<feBlend mode="normal" in="SourceGraphic" in2="effect3_dropShadow" result="shape"/>
</filter>
<filter id="filter1_d" x="11" y="23" width="78" height="50" filterUnits="userSpaceOnUse" color-interpolation-filters="sRGB">
<feFlood flood-opacity="0" result="BackgroundImageFix"/>
<feColorMatrix in="SourceAlpha" type="matrix" values="0 0 0 0 0 0 0 0 0 0 0 0 0 0 0 0 0 0 127 0"/>
<feOffset dy="4"/>
<feGaussianBlur stdDeviation="2"/>
<feColorMatrix type="matrix" values="0 0 0 0 0 0 0 0 0 0 0 0 0 0 0 0 0 0 0.25 0"/>
<feBlend mode="normal" in2="BackgroundImageFix" result="effect1_dropShadow"/>
<feBlend mode="normal" in="SourceGraphic" in2="effect1_dropShadow" result="shape"/>
</filter>
</defs>
</svg>
